<svg width="86" height="33" viewBox="0 0 86 33" fill="none" xmlns="http://www.w3.org/2000/svg">
<path d="M37.6331 16.9469C37.6339 17.3751 37.5655 17.8935 37.452 18.5108C37.432 18.6198 37.4035 18.7712 37.3425 18.9577L29.7755 18.9779L29.994 17.8033C30.8947 17.764 31.5631 17.702 32.0094 17.6041C33.3698 17.3059 34.0483 16.7423 34.0469 15.9227C34.0458 15.3081 33.8979 14.8562 33.5973 14.5691C33.2966 14.282 32.9472 14.1388 32.5427 14.1399C31.4826 14.1427 30.6093 14.7043 29.917 15.821C29.2224 16.9414 28.8795 18.1976 28.882 19.5948C28.8838 20.6562 29.174 21.4533 29.7561 21.994C30.2541 22.4564 30.9093 22.6887 31.7303 22.6865C32.6555 22.684 33.585 22.3338 34.5287 21.6455C34.8395 21.4186 35.2261 21.0677 35.691 20.581L36.809 22.2541C36.2031 22.7392 35.6625 23.0884 35.1994 23.3196C33.7525 24.0422 32.1622 24.4168 30.4344 24.4213C28.731 24.4258 27.4001 24.0207 26.4313 23.2027C25.4674 22.3886 24.9879 21.2055 24.9852 19.6605C24.9818 17.6321 25.7785 15.9484 27.3906 14.6279C28.8806 13.4076 30.5981 12.8031 32.5404 12.798C33.8822 12.7945 35.0223 13.1093 35.9487 13.7396C37.065 14.4992 37.6307 15.5682 37.6331 16.9469ZM45.221 27.9346L43.6427 32.4442L0 32.5597L13.627 1.01721L30.7371 0.971924L20.845 23.5882C20.6748 23.9773 20.5945 24.3892 20.5953 24.8145C20.5965 25.5329 20.916 26.1342 21.5175 26.6741C22.4768 27.5353 24.0807 27.9906 26.3617 27.9845L45.221 27.9346ZM47.3084 30.3541C47.3078 30.0133 47.4316 29.6835 47.6821 29.3645C47.9324 29.0442 48.287 28.8008 48.7456 28.6316C49.2042 28.4625 49.715 28.3766 50.2817 28.3751C51.1572 28.3728 51.8729 28.5613 52.4328 28.9403C52.9927 29.3206 53.2723 29.7998 53.2733 30.3817C53.2743 30.9687 52.9928 31.4557 52.4304 31.8428C51.8661 32.2297 51.1567 32.4243 50.3001 32.4266C49.7704 32.428 49.2648 32.3484 48.7833 32.1893C48.3037 32.0301 47.9371 31.7961 47.6858 31.4858C47.4343 31.177 47.3092 30.7993 47.3084 30.3541ZM48.8806 30.4047C48.8812 30.7889 49.0174 31.0832 49.289 31.2865C49.5627 31.4909 49.8972 31.592 50.2967 31.5909C50.6943 31.5898 51.0287 31.487 51.2977 31.2811C51.5668 31.0764 51.702 30.7788 51.7013 30.3896C51.7007 30.0104 51.5645 29.7185 51.2947 29.5153C51.0249 29.3108 50.6902 29.2097 50.2925 29.2108C49.8931 29.2119 49.5589 29.3147 49.2859 29.5206C49.0151 29.7253 48.8799 30.0204 48.8806 30.4047ZM59.7413 32.3045L58.214 32.3086L58.2106 30.3351C58.2099 29.9172 58.1758 29.6476 58.1107 29.5258C58.0435 29.403 57.9374 29.3087 57.7886 29.2406C57.6398 29.1727 57.4614 29.1395 57.2534 29.1401C56.9859 29.1409 56.7461 29.1899 56.5344 29.2876C56.321 29.3851 56.1762 29.5148 56.0984 29.6742C56.0188 29.8348 55.9803 30.131 55.981 30.5637L55.984 32.3146L54.4567 32.3186L54.45 28.4463L55.8659 28.4425L55.8668 29.0107C56.3734 28.5754 57.0104 28.3573 57.7816 28.3554C58.1198 28.3544 58.4301 28.3947 58.7108 28.4747C58.9935 28.556 59.2055 28.6588 59.3487 28.7839C59.4939 28.9103 59.5945 29.0531 59.6506 29.2134C59.7085 29.3737 59.7367 29.6024 59.7372 29.9009L59.7413 32.3045ZM61.1084 30.8758L61.1066 29.8536L64.117 29.8457L64.1187 30.8679L61.1084 30.8758ZM65.0021 32.2906L64.9928 26.9485L66.5201 26.9445L66.5294 32.2866L65.0021 32.2906ZM68.0921 27.8878L68.0905 26.9403L69.6178 26.9363L69.6195 27.8838L68.0921 27.8878ZM68.0998 32.2824L68.093 28.4102L69.6204 28.4061L69.6271 32.2784L68.0998 32.2824ZM76.4598 32.2604L74.9325 32.2644L74.9291 30.2909C74.9284 29.873 74.8943 29.6034 74.8292 29.4816C74.762 29.3586 74.6559 29.2645 74.5071 29.1964C74.3583 29.1284 74.1799 29.0953 73.9719 29.0958C73.7043 29.0966 73.4645 29.1456 73.2529 29.2433C73.0395 29.3409 72.8947 29.4706 72.8169 29.63C72.7373 29.7905 72.6987 30.0867 72.6995 30.5194L72.7025 32.2702L71.1752 32.2743L71.1685 28.402L72.5844 28.3983L72.5853 28.9666C73.0919 28.5313 73.7288 28.3131 74.5001 28.311C74.8383 28.3102 75.1486 28.3505 75.4293 28.4305C75.7121 28.5118 75.924 28.6145 76.0672 28.7396C76.2125 28.8661 76.313 29.0089 76.3691 29.1692C76.427 29.3293 76.4551 29.5582 76.4556 29.8567L76.4598 32.2604ZM81.3503 31.0238L82.8782 31.1913C82.6836 31.5661 82.3738 31.8517 81.9524 32.0493C81.529 32.2457 80.9997 32.3453 80.366 32.347C79.3607 32.3497 78.6151 32.1314 78.133 31.6925C77.7515 31.3404 77.5594 30.8957 77.5584 30.3573C77.5574 29.7157 77.8073 29.2113 78.3065 28.8469C78.8058 28.4813 79.4392 28.298 80.2048 28.2959C81.0632 28.2937 81.7418 28.4822 82.2404 28.8613C82.7372 29.2405 82.9761 29.8231 82.9552 30.6091L79.131 30.6193C79.1426 30.9226 79.2658 31.1586 79.502 31.3271C79.7364 31.4956 80.03 31.5793 80.3796 31.5785C80.6193 31.5777 80.8199 31.5337 80.9813 31.4463C81.1448 31.3587 81.2671 31.2179 81.3503 31.0238ZM81.4377 29.9864C81.4261 29.6892 81.3124 29.4631 81.0947 29.3096C80.8771 29.1548 80.6132 29.0782 80.3008 29.0791C79.9683 29.08 79.6933 29.1627 79.4762 29.3263C79.2591 29.4897 79.1537 29.7126 79.1577 29.9924L81.4377 29.9864ZM50.7706 13.896C50.5015 14.2308 50.2574 14.5835 49.988 14.9022C49.4377 15.5533 48.8697 16.081 48.3365 16.5272C47.7991 16.9772 47.2529 17.4354 46.6907 17.9142C46.1334 18.3889 45.8863 18.6817 45.9447 18.7948C46.3658 19.6107 46.6704 20.1418 46.8666 20.3853C47.2844 20.9042 47.7564 21.1638 48.2771 21.1623C48.559 21.1616 48.9087 21.0239 49.3302 20.7406C49.4656 20.6496 49.6484 20.4979 49.887 20.2924L50.5143 21.6308C49.9334 22.2654 49.4541 22.7278 49.083 23.0319C47.949 23.9611 46.9409 24.433 46.0402 24.4355C45.3723 24.4372 44.8117 24.2188 44.3603 23.7975C43.9772 23.4401 43.5706 22.7801 43.1253 21.8183C42.9678 21.4783 42.7874 21.3172 42.6097 21.3177C42.5179 21.3178 42.3827 21.3819 42.1934 21.5143C42.0095 21.6431 41.879 21.7231 41.8078 21.7664L37.7131 24.2674L36.9935 22.7003L41.1734 19.7857C41.4582 19.5871 41.6121 19.4552 41.6445 19.4209C41.7344 19.3255 41.779 19.2155 41.7787 19.0864C41.7785 18.9737 41.7388 18.8126 41.6431 18.6104C41.167 17.6051 40.6424 16.3111 40.1107 14.7051C39.9402 14.1901 39.7287 13.4878 39.4576 12.6135L43.2442 12.6035C43.4412 13.179 43.6166 13.6288 43.7489 13.97C44.1214 14.9308 44.4761 15.741 44.8438 16.3685C44.9124 16.4858 45.4003 16.1424 46.2942 15.3588C46.5932 15.0964 47.078 14.7439 47.6339 14.1277L49.4011 12.1682L50.7706 13.896ZM69.3653 6.19209L65.7691 24.1045L60.9102 24.1174L62.1144 18.9477C62.1361 18.8542 62.1662 18.7328 62.1873 18.5838C62.2085 18.4354 62.2237 18.3235 62.2236 18.2496C62.2232 18.0448 62.1679 17.9433 62.0637 17.9436C61.9595 17.9438 61.8576 18.0205 61.7516 18.1678C61.7232 18.2072 61.6849 18.2932 61.6172 18.4192C61.3245 18.9644 61.0431 19.5172 60.7255 20.0404C59.9674 21.289 59.1386 22.282 58.2921 23.0629C57.1138 24.1497 55.9483 24.6861 54.7962 24.6891C53.6811 24.6921 52.7813 24.2477 52.1103 23.358C51.4365 22.4645 51.0957 21.2491 51.093 19.7022C51.0919 19.0709 51.1752 18.2614 51.3156 17.2724C51.3628 16.9393 51.4321 16.4878 51.5583 15.9318L53.7595 6.23335L58.6184 6.22054L56.2166 16.9254C56.2044 16.9807 56.1708 17.1589 56.1195 17.4554C56.0677 17.7553 56.0408 18.0241 56.0413 18.266C56.0422 18.805 56.1529 19.2334 56.3683 19.5498C56.5829 19.8652 56.9696 20.0227 57.521 20.0212C58.6299 20.0183 59.8077 18.8272 61.0563 16.4383C61.9512 14.7257 62.8481 12.5142 63.6855 9.78435C64.0484 8.60125 64.3677 7.3996 64.7087 6.20442L69.3653 6.19209ZM85.8596 6.14839L77.8956 17.6212C77.5413 18.1316 77.3094 18.5301 77.1808 18.797C76.9675 19.24 76.8699 19.6637 76.8705 20.0531C76.8707 20.1286 76.8828 20.2418 76.9201 20.3889C77.1665 21.3579 77.6947 21.8395 78.4851 21.8373L82.9639 21.8255L82.5451 24.1155L68.1219 24.1536L77.4841 9.97111C77.6436 9.72954 77.7636 9.54082 77.8385 9.41106C78.0752 9.00103 78.187 8.74908 78.1743 8.65692C78.1561 8.52594 78.076 8.44622 77.9287 8.41961C77.7757 8.39166 77.5488 8.37982 77.2302 8.38067L71.5687 8.39569L72.2144 6.18453L85.8596 6.14839Z" fill="url(#paint0_linear_96_210)"/>
<defs>
<linearGradient id="paint0_linear_96_210" x1="3.99056" y1="32.5492" x2="3.99116" y2="2.90391" gradientUnits="userSpaceOnUse">
<stop stop-color="white"/>
<stop offset="1" stop-color="white"/>
</linearGradient>
</defs>
</svg>
