<svg width="65" height="66" viewBox="0 0 65 66" fill="none" xmlns="http://www.w3.org/2000/svg">
<path d="M29.8617 14.3452C24.8508 19.3563 24.8508 27.5094 29.8617 32.5205C32.3671 35.0259 35.6582 36.2786 38.9492 36.2786C42.2403 36.2786 45.5313 35.0259 48.0368 32.5205C53.0477 27.5094 53.0477 19.3563 48.0368 14.3452C43.0261 9.33431 34.8726 9.33431 29.8617 14.3452ZM48.6057 29.117V17.7485C50.662 21.2433 50.662 25.6225 48.6057 29.117ZM46.958 15.6009V31.2648C46.9289 31.2946 46.9015 31.3257 46.872 31.3554C42.5034 35.7237 35.3957 35.724 31.0267 31.3554C30.3754 30.7041 29.8236 29.991 29.3666 29.2362H30.3166C30.7717 29.2362 31.1404 28.8672 31.1404 28.4123C31.1404 27.9574 30.7717 27.5885 30.3166 27.5885H28.5459C27.899 25.9624 27.6484 24.2149 27.7919 22.4939H34.271C34.7261 22.4939 35.0948 22.125 35.0948 21.6701C35.0948 21.2152 34.7261 20.8462 34.271 20.8462H28.0524C28.4895 18.991 29.4056 17.2278 30.7974 15.7516H41.356C41.8111 15.7516 42.1798 15.3827 42.1798 14.9278C42.1798 14.4729 41.8111 14.104 41.356 14.104H32.7438C34.6157 12.858 36.7822 12.234 38.9492 12.234C41.8183 12.234 44.6876 13.3261 46.8719 15.5104C46.9015 15.5399 46.9289 15.5711 46.958 15.6009Z" fill="#000066" stroke="#537188" stroke-width="2.0279"/>
<path d="M64.1313 44.4199L52.1956 32.4842C54.0117 29.8386 54.9898 26.7111 54.9898 23.4328C54.9898 19.1485 53.3212 15.1205 50.2916 12.0911C49.0422 10.8416 47.6347 9.84627 46.1347 9.09608V1.72014C46.1347 1.26521 45.7659 0.896301 45.3109 0.896301H9.17586C8.95738 0.896301 8.7478 0.983133 8.59341 1.13752L0.241383 9.4879C0.0868321 9.64245 0 9.85203 0 10.0705V64.1667C0 64.6217 0.368748 64.9906 0.823834 64.9906H45.3109C45.7659 64.9906 46.1347 64.6217 46.1347 64.1667V37.7696C46.7743 37.4498 47.3965 37.0847 47.9971 36.6741L59.9372 48.6142C60.5154 49.1924 61.2746 49.4816 62.0344 49.4816C62.7936 49.4816 63.5533 49.1924 64.1315 48.6142C64.6917 48.0542 65.0002 47.3093 65.0002 46.5171C65 45.7249 64.6916 44.9801 64.1313 44.4199ZM53.3419 23.4328C53.3419 27.2771 51.8449 30.8913 49.1265 33.6094C43.5147 39.2211 34.3847 39.2209 28.7731 33.6094C26.0547 30.8911 24.5577 27.2769 24.5577 23.4328C24.5577 19.5886 26.0547 15.9743 28.7731 13.2561C31.5789 10.4505 35.2642 9.04764 38.9499 9.04764C42.6355 9.04764 46.3207 10.4505 49.1267 13.2561C51.8449 15.9744 53.3419 19.5886 53.3419 23.4328ZM8.35203 3.70854V9.24652H2.81306L8.35203 3.70854ZM44.487 63.3429H1.64767V10.8943H9.17586C9.63095 10.8943 9.9997 10.5254 9.9997 10.0705V2.54397H44.487V8.38462C38.8008 6.3023 32.1641 7.53508 27.6082 12.0912C26.593 13.1063 25.7316 14.234 25.0337 15.4454H17.3008C16.8458 15.4454 16.477 15.8143 16.477 16.2692C16.477 16.7241 16.8458 17.093 17.3008 17.093H24.2082C23.7432 18.1734 23.3992 19.3049 23.1827 20.4708H7.99119C7.5361 20.4708 7.16735 20.8397 7.16735 21.2946C7.16735 21.7495 7.5361 22.1184 7.99119 22.1184H22.9637C22.9286 22.5534 22.91 22.9919 22.91 23.4331C22.91 24.1287 22.9546 24.8173 23.0413 25.4961H15.3233C14.8682 25.4961 14.4995 25.8651 14.4995 26.32C14.4995 26.7749 14.8682 27.1438 15.3233 27.1438H23.3402C23.6164 28.3151 24.0232 29.4469 24.5535 30.5215H7.99119C7.5361 30.5215 7.16735 30.8904 7.16735 31.3454C7.16735 31.8003 7.5361 32.1692 7.99119 32.1692H25.493C26.0991 33.0985 26.8052 33.9719 27.608 34.7748C27.8785 35.0454 28.1588 35.2998 28.4434 35.5469H25.6212C25.1661 35.5469 24.7974 35.9158 24.7974 36.3708C24.7974 36.8257 25.1661 37.1946 25.6212 37.1946H30.7109C33.2376 38.707 36.0933 39.4652 38.9499 39.4652C40.8272 39.4652 42.7034 39.1347 44.487 38.4814V63.3429ZM50.2916 34.7747C50.6045 34.4618 50.9021 34.1377 51.1856 33.8042L59.634 42.2526L57.7699 44.1168L49.3182 35.6651C49.651 35.3826 49.9774 35.0887 50.2916 34.7747ZM62.9663 47.4492C62.4524 47.9631 61.616 47.9631 61.1021 47.4492L58.9348 45.2818L60.7989 43.4177L62.9663 45.585C63.2152 45.834 63.3523 46.165 63.3523 46.5171C63.3523 46.8692 63.2152 47.2002 62.9663 47.4492Z" fill="#000066" stroke="#537188" stroke-width="2.0279"/>
<path d="M7.9918 17.0929H14.5826C15.0377 17.0929 15.4065 16.7239 15.4065 16.269C15.4065 15.8141 15.0377 15.4452 14.5826 15.4452H7.9918C7.53672 15.4452 7.16797 15.8141 7.16797 16.269C7.16797 16.7239 7.53672 17.0929 7.9918 17.0929Z" fill="#000066" stroke="#537188" stroke-width="2.0279"/>
<path d="M7.9918 27.1436H12.5231C12.9781 27.1436 13.3469 26.7747 13.3469 26.3198C13.3469 25.8649 12.9781 25.496 12.5231 25.496H7.9918C7.53672 25.496 7.16797 25.8649 7.16797 26.3198C7.16797 26.7747 7.53672 27.1436 7.9918 27.1436Z" fill="#000066" stroke="#537188" stroke-width="2.0279"/>
<path d="M7.9918 37.1944H23.1999C23.655 37.1944 24.0238 36.8255 24.0238 36.3706C24.0238 35.9157 23.655 35.5468 23.1999 35.5468H7.9918C7.53672 35.5468 7.16797 35.9157 7.16797 36.3706C7.16797 36.8255 7.53672 37.1944 7.9918 37.1944Z" fill="#000066" stroke="#537188" stroke-width="2.0279"/>
<path d="M38.1426 40.5721H14.2516C13.7965 40.5721 13.4277 40.9411 13.4277 41.396C13.4277 41.8509 13.7965 42.2198 14.2516 42.2198H38.1426C38.5977 42.2198 38.9664 41.8509 38.9664 41.396C38.9664 40.9411 38.5977 40.5721 38.1426 40.5721Z" fill="#000066" stroke="#537188" stroke-width="2.0279"/>
<path d="M7.9918 42.2198H11.6168C12.0719 42.2198 12.4407 41.8509 12.4407 41.396C12.4407 40.9411 12.0719 40.5721 11.6168 40.5721H7.9918C7.53672 40.5721 7.16797 40.9411 7.16797 41.396C7.16797 41.8509 7.53672 42.2198 7.9918 42.2198Z" fill="#000066" stroke="#537188" stroke-width="2.0279"/>
<path d="M38.1441 50.6229H22.5738C22.1187 50.6229 21.75 50.9918 21.75 51.4468C21.75 51.9017 22.1187 52.2706 22.5738 52.2706H38.1441C38.5992 52.2706 38.968 51.9017 38.968 51.4468C38.968 50.9918 38.5992 50.6229 38.1441 50.6229Z" fill="#000066" stroke="#537188" stroke-width="2.0279"/>
<path d="M7.9918 52.2706H19.987C20.4421 52.2706 20.8108 51.9017 20.8108 51.4468C20.8108 50.9918 20.4421 50.6229 19.987 50.6229H7.9918C7.53672 50.6229 7.16797 50.9918 7.16797 51.4468C7.16797 51.9017 7.53672 52.2706 7.9918 52.2706Z" fill="#000066" stroke="#537188" stroke-width="2.0279"/>
<path d="M38.1428 55.6483H29.3277C28.8727 55.6483 28.5039 56.0172 28.5039 56.4721C28.5039 56.9271 28.8727 57.296 29.3277 57.296H38.1428C38.5978 57.296 38.9666 56.9271 38.9666 56.4721C38.9666 56.0172 38.5978 55.6483 38.1428 55.6483Z" fill="#000066" stroke="#537188" stroke-width="2.0279"/>
<path d="M26.8732 55.6483H12.1266C11.6715 55.6483 11.3027 56.0172 11.3027 56.4721C11.3027 56.9271 11.6715 57.296 12.1266 57.296H26.8732C27.3283 57.296 27.697 56.9271 27.697 56.4721C27.697 56.0172 27.3281 55.6483 26.8732 55.6483Z" fill="#000066" stroke="#537188" stroke-width="2.0279"/>
<path d="M9.63964 55.6483H7.9918C7.53672 55.6483 7.16797 56.0172 7.16797 56.4721C7.16797 56.9271 7.53672 57.296 7.9918 57.296H9.63964C10.0947 57.296 10.4635 56.9271 10.4635 56.4721C10.4635 56.0172 10.0947 55.6483 9.63964 55.6483Z" fill="#000066" stroke="#537188" stroke-width="2.0279"/>
<path d="M38.144 45.5975H33.1188C32.6637 45.5975 32.2949 45.9664 32.2949 46.4214C32.2949 46.8763 32.6637 47.2452 33.1188 47.2452H38.144C38.5991 47.2452 38.9678 46.8763 38.9678 46.4214C38.9678 45.9664 38.5991 45.5975 38.144 45.5975Z" fill="#000066" stroke="#537188" stroke-width="2.0279"/>
<path d="M7.9918 47.2452H30.2353C30.6904 47.2452 31.0592 46.8763 31.0592 46.4214C31.0592 45.9664 30.6904 45.5975 30.2353 45.5975H7.9918C7.53672 45.5975 7.16797 45.9664 7.16797 46.4214C7.16797 46.8763 7.53672 47.2452 7.9918 47.2452Z" fill="#000066" stroke="#537188" stroke-width="2.0279"/>
<path d="M41.3557 20.8463H38.4723C38.0172 20.8463 37.6484 21.2152 37.6484 21.6701C37.6484 22.125 38.0172 22.4939 38.4723 22.4939H41.3557C41.8108 22.4939 42.1795 22.125 42.1795 21.6701C42.1795 21.2152 41.8108 20.8463 41.3557 20.8463Z" fill="#000066" stroke="#537188" stroke-width="2.0279"/>
<path d="M41.3562 27.5885H33.777C33.3219 27.5885 32.9531 27.9574 32.9531 28.4123C32.9531 28.8673 33.3219 29.2362 33.777 29.2362H41.3562C41.8113 29.2362 42.1801 28.8673 42.1801 28.4123C42.1801 27.9574 41.8113 27.5885 41.3562 27.5885Z" fill="#000066" stroke="#537188" stroke-width="2.0279"/>
</svg>
