<svg width="2004" height="1080" viewBox="0 0 2004 1080" fill="none" xmlns="http://www.w3.org/2000/svg">
<g clip-path="url(#clip0_2110_41298)">
<rect x="172.074" y="780" width="10" height="10" rx="5" transform="rotate(90 172.074 780)" fill="#537188"/>
<rect x="172.589" y="936.195" width="10" height="10" rx="5" transform="rotate(90 172.589 936.195)" fill="#537188"/>
<rect x="172.074" y="858.098" width="10" height="10" rx="5" transform="rotate(90 172.074 858.098)" fill="#537188"/>
<rect x="172.589" y="1013.76" width="10" height="10" rx="5" transform="rotate(90 172.589 1013.76)" fill="#537188"/>
<rect x="172.074" y="818.514" width="10" height="10" rx="5" transform="rotate(90 172.074 818.514)" fill="#537188"/>
<rect x="172.589" y="974.709" width="10" height="10" rx="5" transform="rotate(90 172.589 974.709)" fill="#537188"/>
<rect x="172.589" y="896.611" width="10" height="10" rx="5" transform="rotate(90 172.589 896.611)" fill="#537188"/>
<rect x="172.589" y="1052.27" width="10" height="10" rx="5" transform="rotate(90 172.589 1052.27)" fill="#537188"/>
<rect x="172.074" y="780" width="10" height="10" rx="5" transform="rotate(90 172.074 780)" fill="#537188"/>
<rect x="172.589" y="936.195" width="10" height="10" rx="5" transform="rotate(90 172.589 936.195)" fill="#537188"/>
<rect x="172.074" y="858.098" width="10" height="10" rx="5" transform="rotate(90 172.074 858.098)" fill="#537188"/>
<rect x="172.589" y="1013.76" width="10" height="10" rx="5" transform="rotate(90 172.589 1013.76)" fill="#537188"/>
<rect x="172.074" y="818.514" width="10" height="10" rx="5" transform="rotate(90 172.074 818.514)" fill="#537188"/>
<rect x="172.589" y="974.709" width="10" height="10" rx="5" transform="rotate(90 172.589 974.709)" fill="#537188"/>
<rect x="172.589" y="896.611" width="10" height="10" rx="5" transform="rotate(90 172.589 896.611)" fill="#537188"/>
<rect x="172.589" y="1052.27" width="10" height="10" rx="5" transform="rotate(90 172.589 1052.27)" fill="#537188"/>
<rect x="189.568" y="799.257" width="10" height="10" rx="5" transform="rotate(90 189.568 799.257)" fill="#537188"/>
<rect x="190.083" y="955.452" width="10" height="10" rx="5" transform="rotate(90 190.083 955.452)" fill="#537188"/>
<rect x="190.083" y="877.354" width="10" height="10" rx="5" transform="rotate(90 190.083 877.354)" fill="#537188"/>
<rect x="190.083" y="1033.02" width="10" height="10" rx="5" transform="rotate(90 190.083 1033.02)" fill="#537188"/>
<rect x="189.568" y="837.771" width="10" height="10" rx="5" transform="rotate(90 189.568 837.771)" fill="#537188"/>
<rect x="190.083" y="993.966" width="10" height="10" rx="5" transform="rotate(90 190.083 993.966)" fill="#537188"/>
<rect x="190.083" y="915.869" width="10" height="10" rx="5" transform="rotate(90 190.083 915.869)" fill="#537188"/>
<rect x="190.083" y="1069.92" width="10" height="10" rx="5" transform="rotate(90 190.083 1069.92)" fill="#537188"/>
<rect x="208.092" y="936.195" width="10" height="10" rx="5" transform="rotate(90 208.092 936.195)" fill="#537188"/>
<rect x="207.577" y="858.098" width="10" height="10" rx="5" transform="rotate(90 207.577 858.098)" fill="#537188"/>
<rect x="208.092" y="1013.76" width="10" height="10" rx="5" transform="rotate(90 208.092 1013.76)" fill="#537188"/>
<rect x="207.577" y="818.514" width="10" height="10" rx="5" transform="rotate(90 207.577 818.514)" fill="#537188"/>
<rect x="208.092" y="974.709" width="10" height="10" rx="5" transform="rotate(90 208.092 974.709)" fill="#537188"/>
<rect x="208.092" y="896.611" width="10" height="10" rx="5" transform="rotate(90 208.092 896.611)" fill="#537188"/>
<rect x="208.092" y="1052.27" width="10" height="10" rx="5" transform="rotate(90 208.092 1052.27)" fill="#537188"/>
<rect x="225.072" y="955.452" width="10" height="10" rx="5" transform="rotate(90 225.072 955.452)" fill="#537188"/>
<rect x="225.072" y="877.354" width="10" height="10" rx="5" transform="rotate(90 225.072 877.354)" fill="#537188"/>
<rect x="225.072" y="1033.02" width="10" height="10" rx="5" transform="rotate(90 225.072 1033.02)" fill="#537188"/>
<rect x="224.557" y="837.771" width="10" height="10" rx="5" transform="rotate(90 224.557 837.771)" fill="#537188"/>
<rect x="225.072" y="993.966" width="10" height="10" rx="5" transform="rotate(90 225.072 993.966)" fill="#537188"/>
<rect x="225.072" y="915.869" width="10" height="10" rx="5" transform="rotate(90 225.072 915.869)" fill="#537188"/>
<rect x="225.072" y="1069.92" width="10" height="10" rx="5" transform="rotate(90 225.072 1069.92)" fill="#537188"/>
<rect x="242.566" y="936.195" width="10" height="10" rx="5" transform="rotate(90 242.566 936.195)" fill="#537188"/>
<rect x="242.051" y="858.098" width="10" height="10" rx="5" transform="rotate(90 242.051 858.098)" fill="#537188"/>
<rect x="242.566" y="1013.76" width="10" height="10" rx="5" transform="rotate(90 242.566 1013.76)" fill="#537188"/>
<rect x="242.566" y="974.709" width="10" height="10" rx="5" transform="rotate(90 242.566 974.709)" fill="#537188"/>
<rect x="242.566" y="896.611" width="10" height="10" rx="5" transform="rotate(90 242.566 896.611)" fill="#537188"/>
<rect x="242.566" y="1052.27" width="10" height="10" rx="5" transform="rotate(90 242.566 1052.27)" fill="#537188"/>
<rect x="259.031" y="955.452" width="10" height="10" rx="5" transform="rotate(90 259.031 955.452)" fill="#537188"/>
<rect x="259.031" y="877.354" width="10" height="10" rx="5" transform="rotate(90 259.031 877.354)" fill="#537188"/>
<rect x="259.031" y="1033.02" width="10" height="10" rx="5" transform="rotate(90 259.031 1033.02)" fill="#537188"/>
<rect x="259.031" y="993.966" width="10" height="10" rx="5" transform="rotate(90 259.031 993.966)" fill="#537188"/>
<rect x="259.031" y="915.869" width="10" height="10" rx="5" transform="rotate(90 259.031 915.869)" fill="#537188"/>
<rect x="259.031" y="1069.92" width="10" height="10" rx="5" transform="rotate(90 259.031 1069.92)" fill="#537188"/>
<rect x="276.526" y="936.195" width="10" height="10" rx="5" transform="rotate(90 276.526 936.195)" fill="#537188"/>
<rect x="276.526" y="1013.76" width="10" height="10" rx="5" transform="rotate(90 276.526 1013.76)" fill="#537188"/>
<rect x="276.526" y="974.709" width="10" height="10" rx="5" transform="rotate(90 276.526 974.709)" fill="#537188"/>
<rect x="276.526" y="896.611" width="10" height="10" rx="5" transform="rotate(90 276.526 896.611)" fill="#537188"/>
<rect x="276.526" y="1052.27" width="10" height="10" rx="5" transform="rotate(90 276.526 1052.27)" fill="#537188"/>
<rect x="294.534" y="955.452" width="10" height="10" rx="5" transform="rotate(90 294.534 955.452)" fill="#537188"/>
<rect x="294.534" y="1033.02" width="10" height="10" rx="5" transform="rotate(90 294.534 1033.02)" fill="#537188"/>
<rect x="294.534" y="993.966" width="10" height="10" rx="5" transform="rotate(90 294.534 993.966)" fill="#537188"/>
<rect x="294.534" y="915.869" width="10" height="10" rx="5" transform="rotate(90 294.534 915.869)" fill="#537188"/>
<rect x="294.534" y="1069.92" width="10" height="10" rx="5" transform="rotate(90 294.534 1069.92)" fill="#537188"/>
<rect x="311.514" y="936.195" width="10" height="10" rx="5" transform="rotate(90 311.514 936.195)" fill="#537188"/>
<rect x="311.514" y="1013.76" width="10" height="10" rx="5" transform="rotate(90 311.514 1013.76)" fill="#537188"/>
<rect x="311.514" y="974.709" width="10" height="10" rx="5" transform="rotate(90 311.514 974.709)" fill="#537188"/>
<rect x="311.514" y="1052.27" width="10" height="10" rx="5" transform="rotate(90 311.514 1052.27)" fill="#537188"/>
<rect x="329.008" y="955.452" width="10" height="10" rx="5" transform="rotate(90 329.008 955.452)" fill="#537188"/>
<rect x="329.008" y="1033.02" width="10" height="10" rx="5" transform="rotate(90 329.008 1033.02)" fill="#537188"/>
<rect x="329.008" y="993.966" width="10" height="10" rx="5" transform="rotate(90 329.008 993.966)" fill="#537188"/>
<rect x="329.008" y="1069.92" width="10" height="10" rx="5" transform="rotate(90 329.008 1069.92)" fill="#537188"/>
<rect x="345.988" y="1013.76" width="10" height="10" rx="5" transform="rotate(90 345.988 1013.76)" fill="#537188"/>
<rect x="345.988" y="974.709" width="10" height="10" rx="5" transform="rotate(90 345.988 974.709)" fill="#537188"/>
<rect x="345.988" y="1052.27" width="10" height="10" rx="5" transform="rotate(90 345.988 1052.27)" fill="#537188"/>
<rect x="363.482" y="1033.02" width="10" height="10" rx="5" transform="rotate(90 363.482 1033.02)" fill="#537188"/>
<rect x="363.482" y="993.966" width="10" height="10" rx="5" transform="rotate(90 363.482 993.966)" fill="#537188"/>
<rect x="363.482" y="1069.92" width="10" height="10" rx="5" transform="rotate(90 363.482 1069.92)" fill="#537188"/>
<rect x="381.491" y="1013.76" width="10" height="10" rx="5" transform="rotate(90 381.491 1013.76)" fill="#537188"/>
<rect x="381.491" y="1052.27" width="10" height="10" rx="5" transform="rotate(90 381.491 1052.27)" fill="#537188"/>
<rect x="398.471" y="1033.02" width="10" height="10" rx="5" transform="rotate(90 398.471 1033.02)" fill="#537188"/>
<rect x="398.471" y="1069.92" width="10" height="10" rx="5" transform="rotate(90 398.471 1069.92)" fill="#537188"/>
<rect x="415.965" y="1052.27" width="10" height="10" rx="5" transform="rotate(90 415.965 1052.27)" fill="#537188"/>
<rect x="432.43" y="1069.92" width="10" height="10" rx="5" transform="rotate(90 432.43 1069.92)" fill="#537188"/>
<rect width="10" height="10" rx="5" transform="matrix(0 1 1 0 146.862 799.257)" fill="#537188"/>
<rect width="10" height="10" rx="5" transform="matrix(0 1 1 0 146.347 955.452)" fill="#537188"/>
<rect width="10" height="10" rx="5" transform="matrix(0 1 1 0 146.347 877.354)" fill="#537188"/>
<rect width="10" height="10" rx="5" transform="matrix(0 1 1 0 146.347 1033.02)" fill="#537188"/>
<rect width="10" height="10" rx="5" transform="matrix(0 1 1 0 146.862 837.771)" fill="#537188"/>
<rect width="10" height="10" rx="5" transform="matrix(0 1 1 0 146.347 993.966)" fill="#537188"/>
<rect width="10" height="10" rx="5" transform="matrix(0 1 1 0 146.347 915.869)" fill="#537188"/>
<rect width="10" height="10" rx="5" transform="matrix(0 1 1 0 146.347 1069.92)" fill="#537188"/>
<rect width="10" height="10" rx="5" transform="matrix(0 1 1 0 128.339 936.195)" fill="#537188"/>
<rect width="10" height="10" rx="5" transform="matrix(0 1 1 0 128.853 858.098)" fill="#537188"/>
<rect width="10" height="10" rx="5" transform="matrix(0 1 1 0 128.339 1013.76)" fill="#537188"/>
<rect width="10" height="10" rx="5" transform="matrix(0 1 1 0 128.853 818.514)" fill="#537188"/>
<rect width="10" height="10" rx="5" transform="matrix(0 1 1 0 128.339 974.709)" fill="#537188"/>
<rect width="10" height="10" rx="5" transform="matrix(0 1 1 0 128.339 896.611)" fill="#537188"/>
<rect width="10" height="10" rx="5" transform="matrix(0 1 1 0 128.339 1052.27)" fill="#537188"/>
<rect width="10" height="10" rx="5" transform="matrix(0 1 1 0 111.359 955.452)" fill="#537188"/>
<rect width="10" height="10" rx="5" transform="matrix(0 1 1 0 111.359 877.354)" fill="#537188"/>
<rect width="10" height="10" rx="5" transform="matrix(0 1 1 0 111.359 1033.02)" fill="#537188"/>
<rect width="10" height="10" rx="5" transform="matrix(0 1 1 0 111.873 837.771)" fill="#537188"/>
<rect width="10" height="10" rx="5" transform="matrix(0 1 1 0 111.359 993.966)" fill="#537188"/>
<rect width="10" height="10" rx="5" transform="matrix(0 1 1 0 111.359 915.869)" fill="#537188"/>
<rect width="10" height="10" rx="5" transform="matrix(0 1 1 0 111.359 1069.92)" fill="#537188"/>
<rect width="10" height="10" rx="5" transform="matrix(0 1 1 0 93.8643 936.195)" fill="#537188"/>
<rect width="10" height="10" rx="5" transform="matrix(0 1 1 0 94.3792 858.098)" fill="#537188"/>
<rect width="10" height="10" rx="5" transform="matrix(0 1 1 0 93.8643 1013.76)" fill="#537188"/>
<rect width="10" height="10" rx="5" transform="matrix(0 1 1 0 93.8643 974.709)" fill="#537188"/>
<rect width="10" height="10" rx="5" transform="matrix(0 1 1 0 93.8643 896.611)" fill="#537188"/>
<rect width="10" height="10" rx="5" transform="matrix(0 1 1 0 93.8643 1052.27)" fill="#537188"/>
<rect width="10" height="10" rx="5" transform="matrix(0 1 1 0 77.3994 955.452)" fill="#537188"/>
<rect width="10" height="10" rx="5" transform="matrix(0 1 1 0 77.3994 877.354)" fill="#537188"/>
<rect width="10" height="10" rx="5" transform="matrix(0 1 1 0 77.3994 1033.02)" fill="#537188"/>
<rect width="10" height="10" rx="5" transform="matrix(0 1 1 0 77.3994 993.966)" fill="#537188"/>
<rect width="10" height="10" rx="5" transform="matrix(0 1 1 0 77.3994 915.869)" fill="#537188"/>
<rect width="10" height="10" rx="5" transform="matrix(0 1 1 0 77.3994 1069.92)" fill="#537188"/>
<rect width="10" height="10" rx="5" transform="matrix(0 1 1 0 59.9049 936.195)" fill="#537188"/>
<rect width="10" height="10" rx="5" transform="matrix(0 1 1 0 59.9049 1013.76)" fill="#537188"/>
<rect width="10" height="10" rx="5" transform="matrix(0 1 1 0 59.9049 974.709)" fill="#537188"/>
<rect width="10" height="10" rx="5" transform="matrix(0 1 1 0 59.9049 896.611)" fill="#537188"/>
<rect width="10" height="10" rx="5" transform="matrix(0 1 1 0 59.9049 1052.27)" fill="#537188"/>
<rect width="10" height="10" rx="5" transform="matrix(0 1 1 0 41.896 955.452)" fill="#537188"/>
<rect width="10" height="10" rx="5" transform="matrix(0 1 1 0 41.896 1033.02)" fill="#537188"/>
<rect width="10" height="10" rx="5" transform="matrix(0 1 1 0 41.896 993.966)" fill="#537188"/>
<rect width="10" height="10" rx="5" transform="matrix(0 1 1 0 41.896 915.869)" fill="#537188"/>
<rect width="10" height="10" rx="5" transform="matrix(0 1 1 0 41.896 1069.92)" fill="#537188"/>
<rect width="10" height="10" rx="5" transform="matrix(0 1 1 0 24.9163 936.195)" fill="#537188"/>
<rect width="10" height="10" rx="5" transform="matrix(0 1 1 0 24.9163 1013.76)" fill="#537188"/>
<rect width="10" height="10" rx="5" transform="matrix(0 1 1 0 24.9163 974.709)" fill="#537188"/>
<rect width="10" height="10" rx="5" transform="matrix(0 1 1 0 24.9163 1052.27)" fill="#537188"/>
<rect width="10" height="10" rx="5" transform="matrix(0 1 1 0 7.42224 955.452)" fill="#537188"/>
<rect width="10" height="10" rx="5" transform="matrix(0 1 1 0 7.42224 1033.02)" fill="#537188"/>
<rect width="10" height="10" rx="5" transform="matrix(0 1 1 0 7.42224 993.966)" fill="#537188"/>
<rect width="10" height="10" rx="5" transform="matrix(0 1 1 0 7.42224 1069.92)" fill="#537188"/>
<rect width="10" height="10" rx="5" transform="matrix(0 1 1 0 -9.55774 1013.76)" fill="#537188"/>
<rect width="10" height="10" rx="5" transform="matrix(0 1 1 0 -9.55774 974.709)" fill="#537188"/>
<rect width="10" height="10" rx="5" transform="matrix(0 1 1 0 -9.55774 1052.27)" fill="#537188"/>
<rect x="1832.93" y="300.934" width="10" height="10" rx="5" transform="rotate(-90 1832.93 300.934)" fill="#537188"/>
<rect x="1832.41" y="144.738" width="10" height="10" rx="5" transform="rotate(-90 1832.41 144.738)" fill="#537188"/>
<rect x="1832.93" y="222.836" width="10" height="10" rx="5" transform="rotate(-90 1832.93 222.836)" fill="#537188"/>
<rect x="1832.41" y="67.1753" width="10" height="10" rx="5" transform="rotate(-90 1832.41 67.1753)" fill="#537188"/>
<rect x="1832.93" y="262.42" width="10" height="10" rx="5" transform="rotate(-90 1832.93 262.42)" fill="#537188"/>
<rect x="1832.41" y="106.224" width="10" height="10" rx="5" transform="rotate(-90 1832.41 106.224)" fill="#537188"/>
<rect x="1832.41" y="184.322" width="10" height="10" rx="5" transform="rotate(-90 1832.41 184.322)" fill="#537188"/>
<rect x="1832.41" y="28.6616" width="10" height="10" rx="5" transform="rotate(-90 1832.41 28.6616)" fill="#537188"/>
<rect x="1832.93" y="300.934" width="10" height="10" rx="5" transform="rotate(-90 1832.93 300.934)" fill="#537188"/>
<rect x="1832.41" y="144.738" width="10" height="10" rx="5" transform="rotate(-90 1832.41 144.738)" fill="#537188"/>
<rect x="1832.93" y="222.836" width="10" height="10" rx="5" transform="rotate(-90 1832.93 222.836)" fill="#537188"/>
<rect x="1832.41" y="67.1753" width="10" height="10" rx="5" transform="rotate(-90 1832.41 67.1753)" fill="#537188"/>
<rect x="1832.93" y="262.42" width="10" height="10" rx="5" transform="rotate(-90 1832.93 262.42)" fill="#537188"/>
<rect x="1832.41" y="106.224" width="10" height="10" rx="5" transform="rotate(-90 1832.41 106.224)" fill="#537188"/>
<rect x="1832.41" y="184.322" width="10" height="10" rx="5" transform="rotate(-90 1832.41 184.322)" fill="#537188"/>
<rect x="1832.41" y="28.6616" width="10" height="10" rx="5" transform="rotate(-90 1832.41 28.6616)" fill="#537188"/>
<rect x="1815.43" y="281.677" width="10" height="10" rx="5" transform="rotate(-90 1815.43 281.677)" fill="#537188"/>
<rect x="1814.92" y="125.481" width="10" height="10" rx="5" transform="rotate(-90 1814.92 125.481)" fill="#537188"/>
<rect x="1814.92" y="203.579" width="10" height="10" rx="5" transform="rotate(-90 1814.92 203.579)" fill="#537188"/>
<rect x="1814.92" y="47.9185" width="10" height="10" rx="5" transform="rotate(-90 1814.92 47.9185)" fill="#537188"/>
<rect x="1815.43" y="243.163" width="10" height="10" rx="5" transform="rotate(-90 1815.43 243.163)" fill="#537188"/>
<rect x="1814.92" y="86.9673" width="10" height="10" rx="5" transform="rotate(-90 1814.92 86.9673)" fill="#537188"/>
<rect x="1814.92" y="165.065" width="10" height="10" rx="5" transform="rotate(-90 1814.92 165.065)" fill="#537188"/>
<rect x="1814.92" y="11.0093" width="10" height="10" rx="5" transform="rotate(-90 1814.92 11.0093)" fill="#537188"/>
<rect x="1796.91" y="144.738" width="10" height="10" rx="5" transform="rotate(-90 1796.91 144.738)" fill="#537188"/>
<rect x="1797.42" y="222.836" width="10" height="10" rx="5" transform="rotate(-90 1797.42 222.836)" fill="#537188"/>
<rect x="1796.91" y="67.1753" width="10" height="10" rx="5" transform="rotate(-90 1796.91 67.1753)" fill="#537188"/>
<rect x="1797.42" y="262.42" width="10" height="10" rx="5" transform="rotate(-90 1797.42 262.42)" fill="#537188"/>
<rect x="1796.91" y="106.224" width="10" height="10" rx="5" transform="rotate(-90 1796.91 106.224)" fill="#537188"/>
<rect x="1796.91" y="184.322" width="10" height="10" rx="5" transform="rotate(-90 1796.91 184.322)" fill="#537188"/>
<rect x="1796.91" y="28.6616" width="10" height="10" rx="5" transform="rotate(-90 1796.91 28.6616)" fill="#537188"/>
<rect x="1779.93" y="125.481" width="10" height="10" rx="5" transform="rotate(-90 1779.93 125.481)" fill="#537188"/>
<rect x="1779.93" y="203.579" width="10" height="10" rx="5" transform="rotate(-90 1779.93 203.579)" fill="#537188"/>
<rect x="1779.93" y="47.9185" width="10" height="10" rx="5" transform="rotate(-90 1779.93 47.9185)" fill="#537188"/>
<rect x="1780.44" y="243.163" width="10" height="10" rx="5" transform="rotate(-90 1780.44 243.163)" fill="#537188"/>
<rect x="1779.93" y="86.9673" width="10" height="10" rx="5" transform="rotate(-90 1779.93 86.9673)" fill="#537188"/>
<rect x="1779.93" y="165.065" width="10" height="10" rx="5" transform="rotate(-90 1779.93 165.065)" fill="#537188"/>
<rect x="1779.93" y="11.0093" width="10" height="10" rx="5" transform="rotate(-90 1779.93 11.0093)" fill="#537188"/>
<rect x="1762.43" y="144.738" width="10" height="10" rx="5" transform="rotate(-90 1762.43 144.738)" fill="#537188"/>
<rect x="1762.95" y="222.836" width="10" height="10" rx="5" transform="rotate(-90 1762.95 222.836)" fill="#537188"/>
<rect x="1762.43" y="67.1753" width="10" height="10" rx="5" transform="rotate(-90 1762.43 67.1753)" fill="#537188"/>
<rect x="1762.43" y="106.224" width="10" height="10" rx="5" transform="rotate(-90 1762.43 106.224)" fill="#537188"/>
<rect x="1762.43" y="184.322" width="10" height="10" rx="5" transform="rotate(-90 1762.43 184.322)" fill="#537188"/>
<rect x="1762.43" y="28.6616" width="10" height="10" rx="5" transform="rotate(-90 1762.43 28.6616)" fill="#537188"/>
<rect x="1745.97" y="125.481" width="10" height="10" rx="5" transform="rotate(-90 1745.97 125.481)" fill="#537188"/>
<rect x="1745.97" y="203.579" width="10" height="10" rx="5" transform="rotate(-90 1745.97 203.579)" fill="#537188"/>
<rect x="1745.97" y="47.9185" width="10" height="10" rx="5" transform="rotate(-90 1745.97 47.9185)" fill="#537188"/>
<rect x="1745.97" y="86.9673" width="10" height="10" rx="5" transform="rotate(-90 1745.97 86.9673)" fill="#537188"/>
<rect x="1745.97" y="165.065" width="10" height="10" rx="5" transform="rotate(-90 1745.97 165.065)" fill="#537188"/>
<rect x="1745.97" y="11.0093" width="10" height="10" rx="5" transform="rotate(-90 1745.97 11.0093)" fill="#537188"/>
<rect x="1728.47" y="144.738" width="10" height="10" rx="5" transform="rotate(-90 1728.47 144.738)" fill="#537188"/>
<rect x="1728.47" y="67.1753" width="10" height="10" rx="5" transform="rotate(-90 1728.47 67.1753)" fill="#537188"/>
<rect x="1728.47" y="106.224" width="10" height="10" rx="5" transform="rotate(-90 1728.47 106.224)" fill="#537188"/>
<rect x="1728.47" y="184.322" width="10" height="10" rx="5" transform="rotate(-90 1728.47 184.322)" fill="#537188"/>
<rect x="1728.47" y="28.6616" width="10" height="10" rx="5" transform="rotate(-90 1728.47 28.6616)" fill="#537188"/>
<rect x="1710.47" y="125.481" width="10" height="10" rx="5" transform="rotate(-90 1710.47 125.481)" fill="#537188"/>
<rect x="1710.47" y="47.9185" width="10" height="10" rx="5" transform="rotate(-90 1710.47 47.9185)" fill="#537188"/>
<rect x="1710.47" y="86.9673" width="10" height="10" rx="5" transform="rotate(-90 1710.47 86.9673)" fill="#537188"/>
<rect x="1710.47" y="165.065" width="10" height="10" rx="5" transform="rotate(-90 1710.47 165.065)" fill="#537188"/>
<rect x="1710.47" y="11.0093" width="10" height="10" rx="5" transform="rotate(-90 1710.47 11.0093)" fill="#537188"/>
<rect x="1693.49" y="144.738" width="10" height="10" rx="5" transform="rotate(-90 1693.49 144.738)" fill="#537188"/>
<rect x="1693.49" y="67.1753" width="10" height="10" rx="5" transform="rotate(-90 1693.49 67.1753)" fill="#537188"/>
<rect x="1693.49" y="106.224" width="10" height="10" rx="5" transform="rotate(-90 1693.49 106.224)" fill="#537188"/>
<rect x="1693.49" y="28.6616" width="10" height="10" rx="5" transform="rotate(-90 1693.49 28.6616)" fill="#537188"/>
<rect x="1675.99" y="125.481" width="10" height="10" rx="5" transform="rotate(-90 1675.99 125.481)" fill="#537188"/>
<rect x="1675.99" y="47.9185" width="10" height="10" rx="5" transform="rotate(-90 1675.99 47.9185)" fill="#537188"/>
<rect x="1675.99" y="86.9673" width="10" height="10" rx="5" transform="rotate(-90 1675.99 86.9673)" fill="#537188"/>
<rect x="1675.99" y="11.0093" width="10" height="10" rx="5" transform="rotate(-90 1675.99 11.0093)" fill="#537188"/>
<rect x="1659.01" y="67.1753" width="10" height="10" rx="5" transform="rotate(-90 1659.01 67.1753)" fill="#537188"/>
<rect x="1659.01" y="106.224" width="10" height="10" rx="5" transform="rotate(-90 1659.01 106.224)" fill="#537188"/>
<rect x="1659.01" y="28.6616" width="10" height="10" rx="5" transform="rotate(-90 1659.01 28.6616)" fill="#537188"/>
<rect x="1641.52" y="47.9185" width="10" height="10" rx="5" transform="rotate(-90 1641.52 47.9185)" fill="#537188"/>
<rect x="1641.52" y="86.9673" width="10" height="10" rx="5" transform="rotate(-90 1641.52 86.9673)" fill="#537188"/>
<rect x="1641.52" y="11.0093" width="10" height="10" rx="5" transform="rotate(-90 1641.52 11.0093)" fill="#537188"/>
<rect x="1623.51" y="67.1753" width="10" height="10" rx="5" transform="rotate(-90 1623.51 67.1753)" fill="#537188"/>
<rect x="1623.51" y="28.6616" width="10" height="10" rx="5" transform="rotate(-90 1623.51 28.6616)" fill="#537188"/>
<rect x="1606.53" y="47.9185" width="10" height="10" rx="5" transform="rotate(-90 1606.53 47.9185)" fill="#537188"/>
<rect x="1606.53" y="11.0093" width="10" height="10" rx="5" transform="rotate(-90 1606.53 11.0093)" fill="#537188"/>
<rect x="1589.03" y="28.6616" width="10" height="10" rx="5" transform="rotate(-90 1589.03 28.6616)" fill="#537188"/>
<rect x="1572.57" y="11.0093" width="10" height="10" rx="5" transform="rotate(-90 1572.57 11.0093)" fill="#537188"/>
<rect width="10" height="10" rx="5" transform="matrix(0 -1 -1 0 1858.14 281.677)" fill="#537188"/>
<rect width="10" height="10" rx="5" transform="matrix(0 -1 -1 0 1858.65 125.481)" fill="#537188"/>
<rect width="10" height="10" rx="5" transform="matrix(0 -1 -1 0 1858.65 203.579)" fill="#537188"/>
<rect width="10" height="10" rx="5" transform="matrix(0 -1 -1 0 1858.65 47.9185)" fill="#537188"/>
<rect width="10" height="10" rx="5" transform="matrix(0 -1 -1 0 1858.14 243.163)" fill="#537188"/>
<rect width="10" height="10" rx="5" transform="matrix(0 -1 -1 0 1858.65 86.9673)" fill="#537188"/>
<rect width="10" height="10" rx="5" transform="matrix(0 -1 -1 0 1858.65 165.065)" fill="#537188"/>
<rect width="10" height="10" rx="5" transform="matrix(0 -1 -1 0 1858.65 11.0093)" fill="#537188"/>
<rect width="10" height="10" rx="5" transform="matrix(0 -1 -1 0 1876.66 144.738)" fill="#537188"/>
<rect width="10" height="10" rx="5" transform="matrix(0 -1 -1 0 1876.15 222.836)" fill="#537188"/>
<rect width="10" height="10" rx="5" transform="matrix(0 -1 -1 0 1876.66 67.1753)" fill="#537188"/>
<rect width="10" height="10" rx="5" transform="matrix(0 -1 -1 0 1876.15 262.42)" fill="#537188"/>
<rect width="10" height="10" rx="5" transform="matrix(0 -1 -1 0 1876.66 106.225)" fill="#537188"/>
<rect width="10" height="10" rx="5" transform="matrix(0 -1 -1 0 1876.66 184.322)" fill="#537188"/>
<rect width="10" height="10" rx="5" transform="matrix(0 -1 -1 0 1876.66 28.6616)" fill="#537188"/>
<rect width="10" height="10" rx="5" transform="matrix(0 -1 -1 0 1893.64 125.481)" fill="#537188"/>
<rect width="10" height="10" rx="5" transform="matrix(0 -1 -1 0 1893.64 203.579)" fill="#537188"/>
<rect width="10" height="10" rx="5" transform="matrix(0 -1 -1 0 1893.64 47.9185)" fill="#537188"/>
<rect width="10" height="10" rx="5" transform="matrix(0 -1 -1 0 1893.13 243.163)" fill="#537188"/>
<rect width="10" height="10" rx="5" transform="matrix(0 -1 -1 0 1893.64 86.9673)" fill="#537188"/>
<rect width="10" height="10" rx="5" transform="matrix(0 -1 -1 0 1893.64 165.065)" fill="#537188"/>
<rect width="10" height="10" rx="5" transform="matrix(0 -1 -1 0 1893.64 11.0093)" fill="#537188"/>
<rect width="10" height="10" rx="5" transform="matrix(0 -1 -1 0 1911.14 144.738)" fill="#537188"/>
<rect width="10" height="10" rx="5" transform="matrix(0 -1 -1 0 1910.62 222.836)" fill="#537188"/>
<rect width="10" height="10" rx="5" transform="matrix(0 -1 -1 0 1911.14 67.1753)" fill="#537188"/>
<rect width="10" height="10" rx="5" transform="matrix(0 -1 -1 0 1911.14 106.225)" fill="#537188"/>
<rect width="10" height="10" rx="5" transform="matrix(0 -1 -1 0 1911.14 184.322)" fill="#537188"/>
<rect width="10" height="10" rx="5" transform="matrix(0 -1 -1 0 1911.14 28.6616)" fill="#537188"/>
<rect width="10" height="10" rx="5" transform="matrix(0 -1 -1 0 1927.6 125.481)" fill="#537188"/>
<rect width="10" height="10" rx="5" transform="matrix(0 -1 -1 0 1927.6 203.579)" fill="#537188"/>
<rect width="10" height="10" rx="5" transform="matrix(0 -1 -1 0 1927.6 47.9185)" fill="#537188"/>
<rect width="10" height="10" rx="5" transform="matrix(0 -1 -1 0 1927.6 86.9673)" fill="#537188"/>
<rect width="10" height="10" rx="5" transform="matrix(0 -1 -1 0 1927.6 165.065)" fill="#537188"/>
<rect width="10" height="10" rx="5" transform="matrix(0 -1 -1 0 1927.6 11.0093)" fill="#537188"/>
<rect width="10" height="10" rx="5" transform="matrix(0 -1 -1 0 1945.09 144.738)" fill="#537188"/>
<rect width="10" height="10" rx="5" transform="matrix(0 -1 -1 0 1945.09 67.1753)" fill="#537188"/>
<rect width="10" height="10" rx="5" transform="matrix(0 -1 -1 0 1945.09 106.225)" fill="#537188"/>
<rect width="10" height="10" rx="5" transform="matrix(0 -1 -1 0 1945.09 184.322)" fill="#537188"/>
<rect width="10" height="10" rx="5" transform="matrix(0 -1 -1 0 1945.09 28.6616)" fill="#537188"/>
<rect width="10" height="10" rx="5" transform="matrix(0 -1 -1 0 1963.1 125.481)" fill="#537188"/>
<rect width="10" height="10" rx="5" transform="matrix(0 -1 -1 0 1963.1 47.9185)" fill="#537188"/>
<rect width="10" height="10" rx="5" transform="matrix(0 -1 -1 0 1963.1 86.9673)" fill="#537188"/>
<rect width="10" height="10" rx="5" transform="matrix(0 -1 -1 0 1963.1 165.065)" fill="#537188"/>
<rect width="10" height="10" rx="5" transform="matrix(0 -1 -1 0 1963.1 11.0093)" fill="#537188"/>
<rect width="10" height="10" rx="5" transform="matrix(0 -1 -1 0 1980.08 144.738)" fill="#537188"/>
<rect width="10" height="10" rx="5" transform="matrix(0 -1 -1 0 1980.08 67.1753)" fill="#537188"/>
<rect width="10" height="10" rx="5" transform="matrix(0 -1 -1 0 1980.08 106.225)" fill="#537188"/>
<rect width="10" height="10" rx="5" transform="matrix(0 -1 -1 0 1980.08 28.6616)" fill="#537188"/>
<rect width="10" height="10" rx="5" transform="matrix(0 -1 -1 0 1997.58 125.481)" fill="#537188"/>
<rect width="10" height="10" rx="5" transform="matrix(0 -1 -1 0 1997.58 47.9185)" fill="#537188"/>
<rect width="10" height="10" rx="5" transform="matrix(0 -1 -1 0 1997.58 86.9673)" fill="#537188"/>
<rect width="10" height="10" rx="5" transform="matrix(0 -1 -1 0 1997.58 11.0093)" fill="#537188"/>
<path d="M2004.36 570.474L1751.2 867.698L1932.03 1080H2004.36V1060.02L1839.28 867.698L2004.36 676.876V570.474Z" fill="#537188"/>
<path d="M1585.7 960.611L1687.81 1080M2004.36 290.233L1660.15 694.359L1067.48 2M1324.04 2L1125.34 233.786L927.5 2M919.536 570.474L1324.04 1080M400.5 226.112L805 735.64M1751.2 867.698L2004.36 570.474V676.876L1839.28 867.698L2004.36 1060.02V1080H1932.03L1751.2 867.698Z" stroke="#537188" stroke-width="5"/>
</g>
<defs>
<clipPath id="clip0_2110_41298">
<rect width="2004" height="1080" fill="white"/>
</clipPath>
</defs>
</svg>
