<svg width="31" height="30" viewBox="0 0 31 30" fill="none" xmlns="http://www.w3.org/2000/svg">
<path d="M14.2827 1.21858C11.1421 1.57015 8.25928 3.19905 6.41943 5.67171C5.63427 6.7264 5.14209 7.65218 4.74365 8.85921C4.52099 9.51546 4.28662 10.5233 4.28662 10.7811C4.28662 10.8631 4.22802 10.91 4.06396 10.9569C3.73584 11.0389 3.23193 11.3084 2.88037 11.578C2.35302 11.9881 1.96631 12.5506 1.70849 13.2537L1.55615 13.6873L1.54443 15.7967C1.52099 18.2108 1.54443 18.4217 1.91943 19.16C2.31787 19.9569 3.02099 20.5897 3.91162 20.9295C4.28662 21.0701 4.36865 21.0819 5.09521 21.0819C5.7749 21.0819 5.92724 21.0701 6.23193 20.9647C7.29834 20.5897 8.13037 19.7576 8.51709 18.6795C8.63428 18.3397 8.64599 18.2694 8.65771 16.1366C8.66943 13.6639 8.65771 13.4764 8.29443 12.7381C8.04834 12.2459 7.6499 11.7889 7.18115 11.4608L6.84131 11.2147L6.91162 10.7694C7.01709 10.1951 7.34521 9.18733 7.62646 8.6014C8.24756 7.2889 9.43115 5.96468 10.6733 5.15608C12.0444 4.26546 13.4858 3.83186 15.1382 3.77327C16.5679 3.73811 17.7046 3.93733 18.9116 4.44124C19.978 4.89827 20.8804 5.50765 21.7241 6.36311C22.8843 7.53499 23.6812 9.03499 24.0093 10.6522C24.0562 10.8866 24.0913 11.0858 24.0796 11.0858C24.0679 11.0975 23.8687 11.2264 23.646 11.3787C22.8843 11.8944 22.3569 12.6092 22.146 13.4647C22.0522 13.8397 22.0405 14.0741 22.0405 15.9725C22.0405 18.2928 22.0757 18.5506 22.4155 19.2069C22.7202 19.7811 23.2827 20.3787 23.7983 20.6717C23.8921 20.7186 23.7749 20.9998 23.2944 21.7733C21.8296 24.1873 19.5679 25.7342 16.9077 26.1678C16.439 26.2381 15.1968 26.2733 15.0444 26.2147C14.9976 26.203 14.8804 26.0741 14.7749 25.9334C14.6694 25.7928 14.4702 25.5936 14.3296 25.5116C14.0835 25.3475 13.1577 25.0194 12.4077 24.8201C11.4468 24.5741 10.5913 24.9256 10.1929 25.7342C9.88818 26.3553 9.92334 26.9998 10.3101 27.5858C10.5679 27.9608 10.9312 28.1951 11.7046 28.4647C13.3101 29.0037 13.9194 28.9686 14.5874 28.2889L14.8569 28.0076L15.5015 28.0194C18.0562 28.0897 20.5171 27.2342 22.4741 25.5819C23.6577 24.5858 24.7476 23.1561 25.3921 21.7381C25.5093 21.4686 25.6265 21.2225 25.6499 21.1873C25.6733 21.1522 25.8491 21.117 26.0249 21.0936C27.1265 20.9881 28.2515 20.1912 28.7671 19.1483C29.1187 18.4334 29.1538 18.2225 29.1538 15.9608C29.1538 13.6991 29.1304 13.4881 28.7671 12.7616C28.4155 12.035 27.7358 11.4022 26.9624 11.0858L26.6929 10.9686L26.5522 10.242C25.6382 5.61311 21.9585 2.10921 17.2124 1.31233C16.6265 1.19515 14.9155 1.14827 14.2827 1.21858Z" fill="#204B6C"/>
</svg>
