<svg width="40" height="20" viewBox="0 0 40 20" fill="none" xmlns="http://www.w3.org/2000/svg">
<g clip-path="url(#clip0_2159_6104)">
<path d="M0 0H40V20H0V0Z" fill="#1EB53A"/>
<path d="M0 0H40V20H0V0Z" fill="#1EB53A"/>
<path d="M0 0H40V10H0V0Z" fill="#0099B5"/>
<path d="M0 6.40039H40V13.6004H0V6.40039Z" fill="#CE1126"/>
<path d="M0 6.7998H40V13.1998H0V6.7998Z" fill="white"/>
<path d="M5.59922 5.5998C6.9247 5.5998 7.99922 4.52529 7.99922 3.1998C7.99922 1.87432 6.9247 0.799805 5.59922 0.799805C4.27374 0.799805 3.19922 1.87432 3.19922 3.1998C3.19922 4.52529 4.27374 5.5998 5.59922 5.5998Z" fill="white"/>
<path d="M6.4 5.5998C7.72548 5.5998 8.8 4.52529 8.8 3.1998C8.8 1.87432 7.72548 0.799805 6.4 0.799805C5.07452 0.799805 4 1.87432 4 3.1998C4 4.52529 5.07452 5.5998 6.4 5.5998Z" fill="#0099B5"/>
<path d="M10.8789 4.63965L10.7306 5.09616L10.9588 5.17032" fill="white"/>
<path d="M10.8789 4.63965L11.0272 5.09616L10.799 5.17032" fill="white"/>
<path d="M11.3145 4.97168L10.8555 5.02523L10.8765 5.21168" fill="white"/>
<path d="M11.334 4.91113L11.0134 5.25299L10.8046 5.11855" fill="white"/>
<path d="M10.4219 4.91113L10.7424 5.25299L10.9513 5.11855" fill="white"/>
<path d="M10.4434 4.9707L10.9024 5.02425L10.8814 5.2107" fill="white"/>
<path d="M11.1621 5.51172L11.0183 5.05146L10.7855 5.12187" fill="white"/>
<path d="M11.168 5.50781L10.7731 5.23258L10.9076 5.03151" fill="white"/>
<path d="M10.5996 5.50781L10.9852 5.22219L10.8414 5.03151" fill="white"/>
<path d="M10.5957 5.5166L10.7307 5.05185L10.9723 5.11777" fill="white"/>
<path d="M10.8789 2.71973L10.7306 3.17623L10.9588 3.2504" fill="white"/>
<path d="M10.8789 2.71973L11.0272 3.17623L10.799 3.2504" fill="white"/>
<path d="M11.3145 3.05176L10.8555 3.10531L10.8765 3.29176" fill="white"/>
<path d="M11.334 2.99121L11.0134 3.33307L10.8046 3.19863" fill="white"/>
<path d="M10.4219 2.99121L10.7424 3.33307L10.9513 3.19863" fill="white"/>
<path d="M10.4434 3.05078L10.9024 3.10433L10.8814 3.29078" fill="white"/>
<path d="M11.1621 3.5918L11.0183 3.13154L10.7855 3.20195" fill="white"/>
<path d="M11.168 3.58789L10.7731 3.31266L10.9076 3.11159" fill="white"/>
<path d="M10.5996 3.58789L10.9852 3.30226L10.8414 3.11159" fill="white"/>
<path d="M10.5957 3.59668L10.7307 3.13193L10.9723 3.19785" fill="white"/>
<path d="M10.8789 0.799805L10.7306 1.25631L10.9588 1.33048" fill="white"/>
<path d="M10.8789 0.799805L11.0272 1.25631L10.799 1.33048" fill="white"/>
<path d="M11.3145 1.13184L10.8555 1.18539L10.8765 1.37184" fill="white"/>
<path d="M11.334 1.07129L11.0134 1.41315L10.8046 1.2787" fill="white"/>
<path d="M10.4219 1.07129L10.7424 1.41315L10.9513 1.2787" fill="white"/>
<path d="M10.4434 1.13086L10.9024 1.18441L10.8814 1.37086" fill="white"/>
<path d="M11.1621 1.67188L11.0183 1.21162L10.7855 1.28203" fill="white"/>
<path d="M11.168 1.66797L10.7731 1.39274L10.9076 1.19167" fill="white"/>
<path d="M10.5996 1.66797L10.9852 1.38234L10.8414 1.19167" fill="white"/>
<path d="M10.5957 1.67676L10.7307 1.21201L10.9723 1.27793" fill="white"/>
<path d="M12.7988 4.63965L12.6505 5.09616L12.8788 5.17032" fill="white"/>
<path d="M12.7988 4.63965L12.9472 5.09616L12.7189 5.17032" fill="white"/>
<path d="M13.2344 4.97168L12.7754 5.02523L12.7964 5.21168" fill="white"/>
<path d="M13.2539 4.91113L12.9334 5.25299L12.7245 5.11855" fill="white"/>
<path d="M12.3418 4.91113L12.6623 5.25299L12.8712 5.11855" fill="white"/>
<path d="M12.3633 4.9707L12.8223 5.02425L12.8013 5.2107" fill="white"/>
<path d="M13.082 5.51172L12.9382 5.05146L12.7054 5.12187" fill="white"/>
<path d="M13.0879 5.50781L12.693 5.23258L12.8275 5.03151" fill="white"/>
<path d="M12.5195 5.50781L12.9051 5.22219L12.7613 5.03151" fill="white"/>
<path d="M12.5156 5.5166L12.6506 5.05185L12.8922 5.11777" fill="white"/>
<path d="M12.7988 2.71973L12.6505 3.17623L12.8788 3.2504" fill="white"/>
<path d="M12.7988 2.71973L12.9472 3.17623L12.7189 3.2504" fill="white"/>
<path d="M13.2344 3.05176L12.7754 3.10531L12.7964 3.29176" fill="white"/>
<path d="M13.2539 2.99121L12.9334 3.33307L12.7245 3.19863" fill="white"/>
<path d="M12.3418 2.99121L12.6623 3.33307L12.8712 3.19863" fill="white"/>
<path d="M12.3633 3.05078L12.8223 3.10433L12.8013 3.29078" fill="white"/>
<path d="M13.082 3.5918L12.9382 3.13154L12.7054 3.20195" fill="white"/>
<path d="M13.0879 3.58789L12.693 3.31266L12.8275 3.11159" fill="white"/>
<path d="M12.5195 3.58789L12.9051 3.30226L12.7613 3.11159" fill="white"/>
<path d="M12.5156 3.59668L12.6506 3.13193L12.8922 3.19785" fill="white"/>
<path d="M12.7988 0.799805L12.6505 1.25631L12.8788 1.33048" fill="white"/>
<path d="M12.7988 0.799805L12.9472 1.25631L12.7189 1.33048" fill="white"/>
<path d="M13.2344 1.13184L12.7754 1.18539L12.7964 1.37184" fill="white"/>
<path d="M13.2539 1.07129L12.9334 1.41315L12.7245 1.2787" fill="white"/>
<path d="M12.3418 1.07129L12.6623 1.41315L12.8712 1.2787" fill="white"/>
<path d="M12.3633 1.13086L12.8223 1.18441L12.8013 1.37086" fill="white"/>
<path d="M13.082 1.67188L12.9382 1.21162L12.7054 1.28203" fill="white"/>
<path d="M13.0879 1.66797L12.693 1.39274L12.8275 1.19167" fill="white"/>
<path d="M12.5195 1.66797L12.9051 1.38234L12.7613 1.19167" fill="white"/>
<path d="M12.5156 1.67676L12.6506 1.21201L12.8922 1.27793" fill="white"/>
<path d="M14.7188 4.63965L14.5704 5.09616L14.7987 5.17032" fill="white"/>
<path d="M14.7188 4.63965L14.8671 5.09616L14.6388 5.17032" fill="white"/>
<path d="M15.1543 4.97168L14.6953 5.02523L14.7163 5.21168" fill="white"/>
<path d="M15.1738 4.91113L14.8533 5.25299L14.6444 5.11855" fill="white"/>
<path d="M14.2617 4.91113L14.5823 5.25299L14.7911 5.11855" fill="white"/>
<path d="M14.2832 4.9707L14.7422 5.02425L14.7212 5.2107" fill="white"/>
<path d="M15.002 5.51172L14.8581 5.05146L14.6254 5.12187" fill="white"/>
<path d="M15.0078 5.50781L14.6129 5.23258L14.7475 5.03151" fill="white"/>
<path d="M14.4395 5.50781L14.8251 5.22219L14.6813 5.03151" fill="white"/>
<path d="M14.4355 5.5166L14.5705 5.05185L14.8121 5.11777" fill="white"/>
<path d="M14.7188 2.71973L14.5704 3.17623L14.7987 3.2504" fill="white"/>
<path d="M14.7188 2.71973L14.8671 3.17623L14.6388 3.2504" fill="white"/>
<path d="M15.1543 3.05176L14.6953 3.10531L14.7163 3.29176" fill="white"/>
<path d="M15.1738 2.99121L14.8533 3.33307L14.6444 3.19863" fill="white"/>
<path d="M14.2617 2.99121L14.5823 3.33307L14.7911 3.19863" fill="white"/>
<path d="M14.2832 3.05078L14.7422 3.10433L14.7212 3.29078" fill="white"/>
<path d="M15.002 3.5918L14.8581 3.13154L14.6254 3.20195" fill="white"/>
<path d="M15.0078 3.58789L14.6129 3.31266L14.7475 3.11159" fill="white"/>
<path d="M14.4395 3.58789L14.8251 3.30226L14.6813 3.11159" fill="white"/>
<path d="M14.4355 3.59668L14.5705 3.13193L14.8121 3.19785" fill="white"/>
<path d="M14.7188 0.799805L14.5704 1.25631L14.7987 1.33048" fill="white"/>
<path d="M14.7188 0.799805L14.8671 1.25631L14.6388 1.33048" fill="white"/>
<path d="M15.1543 1.13184L14.6953 1.18539L14.7163 1.37184" fill="white"/>
<path d="M15.1738 1.07129L14.8533 1.41315L14.6444 1.2787" fill="white"/>
<path d="M14.2617 1.07129L14.5823 1.41315L14.7911 1.2787" fill="white"/>
<path d="M14.2832 1.13086L14.7422 1.18441L14.7212 1.37086" fill="white"/>
<path d="M15.002 1.67188L14.8581 1.21162L14.6254 1.28203" fill="white"/>
<path d="M15.0078 1.66797L14.6129 1.39274L14.7475 1.19167" fill="white"/>
<path d="M14.4395 1.66797L14.8251 1.38234L14.6813 1.19167" fill="white"/>
<path d="M14.4355 1.67676L14.5705 1.21201L14.8121 1.27793" fill="white"/>
<path d="M7.03906 4.63965L6.89073 5.09616L7.11899 5.17032" fill="white"/>
<path d="M7.03906 4.63965L7.18739 5.09616L6.95914 5.17032" fill="white"/>
<path d="M7.47461 4.97168L7.01561 5.02523L7.03661 5.21168" fill="white"/>
<path d="M7.49414 4.91113L7.17359 5.25299L6.96474 5.11855" fill="white"/>
<path d="M6.58203 4.91113L6.90258 5.25299L7.11143 5.11855" fill="white"/>
<path d="M6.60352 4.9707L7.06252 5.02425L7.04152 5.2107" fill="white"/>
<path d="M7.32227 5.51172L7.17845 5.05146L6.94568 5.12187" fill="white"/>
<path d="M7.32812 5.50781L6.93325 5.23258L7.06777 5.03151" fill="white"/>
<path d="M6.75977 5.50781L7.14537 5.22219L7.00158 5.03151" fill="white"/>
<path d="M6.75586 5.5166L6.89081 5.05185L7.13244 5.11777" fill="white"/>
<path d="M8.95898 4.63965L8.81066 5.09616L9.03891 5.17032" fill="white"/>
<path d="M8.95898 4.63965L9.10731 5.09616L8.87906 5.17032" fill="white"/>
<path d="M9.39453 4.97168L8.93553 5.02523L8.95653 5.21168" fill="white"/>
<path d="M9.41406 4.91113L9.09351 5.25299L8.88467 5.11855" fill="white"/>
<path d="M8.50195 4.91113L8.8225 5.25299L9.03135 5.11855" fill="white"/>
<path d="M8.52344 4.9707L8.98244 5.02425L8.96144 5.2107" fill="white"/>
<path d="M9.24219 5.51172L9.09837 5.05146L8.86561 5.12187" fill="white"/>
<path d="M9.24805 5.50781L8.85317 5.23258L8.98769 5.03151" fill="white"/>
<path d="M8.67969 5.50781L9.06529 5.22219L8.9215 5.03151" fill="white"/>
<path d="M8.67578 5.5166L8.81073 5.05185L9.05236 5.11777" fill="white"/>
<path d="M8.95898 2.71973L8.81066 3.17623L9.03891 3.2504" fill="white"/>
<path d="M8.95898 2.71973L9.10731 3.17623L8.87906 3.2504" fill="white"/>
<path d="M9.39453 3.05176L8.93553 3.10531L8.95653 3.29176" fill="white"/>
<path d="M9.41406 2.99121L9.09351 3.33307L8.88467 3.19863" fill="white"/>
<path d="M8.50195 2.99121L8.8225 3.33307L9.03135 3.19863" fill="white"/>
<path d="M8.52344 3.05078L8.98244 3.10433L8.96144 3.29078" fill="white"/>
<path d="M9.24219 3.5918L9.09837 3.13154L8.86561 3.20195" fill="white"/>
<path d="M9.24805 3.58789L8.85317 3.31266L8.98769 3.11159" fill="white"/>
<path d="M8.67969 3.58789L9.06529 3.30226L8.9215 3.11159" fill="white"/>
<path d="M8.67578 3.59668L8.81073 3.13193L9.05236 3.19785" fill="white"/>
</g>
<defs>
<clipPath id="clip0_2159_6104">
<rect width="40" height="20" fill="white"/>
</clipPath>
</defs>
</svg>
