<svg width="22" height="19" viewBox="0 0 22 19" fill="none" xmlns="http://www.w3.org/2000/svg">
<path d="M4.57507 17.4394C6.34829 17.4394 7.78576 16.2149 7.78576 14.7043C7.78576 13.1938 6.34829 11.9692 4.57507 11.9692C2.80186 11.9692 1.36438 13.1938 1.36438 14.7043C1.36438 16.2149 2.80186 17.4394 4.57507 17.4394Z" stroke="white" stroke-width="2" stroke-linecap="round" stroke-linejoin="round"/>
<path d="M7.78589 14.7043V2.85221L20.6287 1.02881V12.8809" stroke="white" stroke-width="2" stroke-linecap="round" stroke-linejoin="round"/>
<path d="M17.4177 15.6162C19.1909 15.6162 20.6284 14.3917 20.6284 12.8811C20.6284 11.3705 19.1909 10.146 17.4177 10.146C15.6445 10.146 14.207 11.3705 14.207 12.8811C14.207 14.3917 15.6445 15.6162 17.4177 15.6162Z" stroke="white" stroke-width="2" stroke-linecap="round" stroke-linejoin="round"/>
</svg>
