<svg width="22" height="24" viewBox="0 0 22 24" fill="none" xmlns="http://www.w3.org/2000/svg">
<path d="M6.33238 0.12287C7.09578 -0.0675233 7.91499 -0.0358926 8.65364 0.212496C9.39228 0.460885 10.0058 0.911047 10.3921 1.48805L10.5212 1.70307L11.6761 3.82587C12.0266 4.47019 12.1404 5.18554 12.0033 5.88292C11.8662 6.58031 11.4842 7.22897 10.905 7.74823L10.6729 7.93872L8.85332 9.34286C8.52534 9.59973 8.77133 10.594 9.95765 12.294C11.0253 13.8237 11.8942 14.538 12.3216 14.577H12.3966L12.4891 14.5626L16.0655 13.6577C16.5461 13.5358 17.0591 13.531 17.543 13.6438C18.0268 13.7567 18.4612 13.9825 18.794 14.2941L18.9528 14.4601L21.3202 17.1731C21.7842 17.7049 22.0154 18.3515 21.9757 19.0065C21.9361 19.6615 21.628 20.2858 21.1021 20.7766L20.8893 20.9584L19.9437 21.7001C19.0946 22.3653 18.0325 22.8148 16.8835 22.9951C15.7346 23.1755 14.5472 23.0791 13.4625 22.7175C10.0868 21.5919 7.01975 19.0203 4.23363 15.0287C1.44228 11.027 0.282119 7.53898 0.800265 4.55175C0.957058 3.64876 1.40658 2.79774 2.1011 2.08909C2.79561 1.38044 3.70919 0.840614 4.7448 0.526939L5.0815 0.43458L6.33238 0.12287Z" fill="#204B6C"/>
</svg>
