<svg width="22" height="22" viewBox="0 0 22 22" fill="none" xmlns="http://www.w3.org/2000/svg">
<path fill-rule="evenodd" clip-rule="evenodd" d="M17.2537 2.48389H5.00366C3.55391 2.48389 2.37866 3.65914 2.37866 5.10889V17.3589C2.37866 18.8086 3.55391 19.9839 5.00366 19.9839H17.2537C18.7034 19.9839 19.8787 18.8086 19.8787 17.3589V5.10889C19.8787 3.65914 18.7034 2.48389 17.2537 2.48389ZM7.55866 15.9414C7.51702 16.0488 7.45457 16.1469 7.37491 16.2301C7.28986 16.3074 7.1922 16.3696 7.08616 16.4139C6.98097 16.4587 6.868 16.4825 6.75366 16.4839C6.52199 16.4807 6.30009 16.39 6.13241 16.2301C6.05275 16.1469 5.99031 16.0488 5.94866 15.9414C5.85506 15.7296 5.85506 15.4882 5.94866 15.2764C5.99031 15.169 6.05275 15.0709 6.13241 14.9876C6.38403 14.7394 6.76031 14.6669 7.08616 14.8039C7.1922 14.8482 7.28986 14.9103 7.37491 14.9876C7.45457 15.0709 7.51702 15.169 7.55866 15.2764C7.65227 15.4882 7.65227 15.7296 7.55866 15.9414ZM7.57616 11.5664C7.60139 11.5168 7.61908 11.4637 7.62866 11.4089C7.63296 11.3506 7.63296 11.2921 7.62866 11.2339C7.62544 11.0022 7.5348 10.7803 7.37491 10.6126C7.28986 10.5353 7.1922 10.4732 7.08616 10.4289C6.76031 10.2919 6.38403 10.3644 6.13241 10.6126C6.05138 10.6948 5.98875 10.7932 5.94866 10.9014C5.90383 11.0066 5.88004 11.1195 5.87866 11.2339C5.87732 11.4665 5.96862 11.69 6.13241 11.8551C6.30009 12.015 6.52199 12.1057 6.75366 12.1089C6.8739 12.1098 6.99304 12.086 7.10366 12.0389C7.2097 11.9946 7.30736 11.9324 7.39241 11.8551L7.49741 11.7239C7.53053 11.6751 7.55701 11.6221 7.57616 11.5664ZM7.37491 7.48014C7.28986 7.55743 7.1922 7.61958 7.08616 7.66389C6.98232 7.71287 6.86844 7.73684 6.75366 7.73389C6.52199 7.73066 6.30009 7.64003 6.13241 7.48014C5.96862 7.31501 5.87732 7.09146 5.87866 6.85889C5.88004 6.74454 5.90383 6.63158 5.94866 6.52639C5.99297 6.42035 6.05512 6.32269 6.13241 6.23764C6.38403 5.98936 6.76031 5.91686 7.08616 6.05389C7.1922 6.0982 7.28986 6.16035 7.37491 6.23764C7.4522 6.32269 7.51435 6.42035 7.55866 6.52639C7.6035 6.63158 7.62728 6.74454 7.62866 6.85889C7.62544 7.09056 7.5348 7.31246 7.37491 7.48014ZM10.2537 16.4839H15.5037C15.9869 16.4839 16.3787 16.0921 16.3787 15.6089C16.3787 15.1256 15.9869 14.7339 15.5037 14.7339H10.2537C9.77041 14.7339 9.37866 15.1256 9.37866 15.6089C9.37866 16.0921 9.77041 16.4839 10.2537 16.4839ZM15.5037 12.1089H10.2537C9.77041 12.1089 9.37866 11.7171 9.37866 11.2339C9.37866 10.7506 9.77041 10.3589 10.2537 10.3589H15.5037C15.9869 10.3589 16.3787 10.7506 16.3787 11.2339C16.3787 11.7171 15.9869 12.1089 15.5037 12.1089ZM10.2537 7.73389H15.5037C15.9869 7.73389 16.3787 7.34214 16.3787 6.85889C16.3787 6.37564 15.9869 5.98389 15.5037 5.98389H10.2537C9.77041 5.98389 9.37866 6.37564 9.37866 6.85889C9.37866 7.34214 9.77041 7.73389 10.2537 7.73389Z" fill="white"/>
</svg>
