<svg width="40" height="36" viewBox="0 0 40 36" fill="none" xmlns="http://www.w3.org/2000/svg">
<path fill-rule="evenodd" clip-rule="evenodd" d="M0.908203 14.0756L20 0.710022L39.1895 14.0756H0.908203ZM0 33.5794H2.95573V31.5451H3.38542V30.5746H4.63867V18.9315H2.07682V16.142H37.9199V18.9315H35.3613V30.5746H36.6146V31.5451H37.0443V33.5794H40V35.71H0V33.5794ZM10.6087 31.5451H12.054V30.5746H13.3073V18.9315H9.35547V30.5746H10.6087V31.5451ZM19.2773 31.5451H20.7259V30.5746H21.9759V18.9315H18.0241V30.5746H19.2773V31.5451ZM27.946 31.5451H29.3945V30.5746H30.6478V18.9315H26.6927V30.5746H27.946V31.5451ZM13.571 10.7045L20.0293 5.81332L26.5234 10.7045H13.571Z" fill="#537188"/>
</svg>
