<svg width="47" height="33" viewBox="0 0 47 33" fill="none" xmlns="http://www.w3.org/2000/svg">
<path fill-rule="evenodd" clip-rule="evenodd" d="M17.8224 17.681C17.9013 17.2835 18.0463 17.1673 18.2116 17.1304C18.6641 17.0478 18.5935 19.6107 17.8224 19.7302V17.681ZM38.0544 15.7708C38.1453 15.3223 38.3078 15.1919 38.4941 15.1496C39.0063 15.0562 38.9255 17.9525 38.0544 18.0871V15.7708ZM38.8879 14.1831C38.8852 14.2363 38.8833 14.2895 38.8806 14.346L38.5115 14.6196C39.692 14.5219 39.4589 18.4216 38.1095 18.6561C38.0773 18.6616 38.0498 18.6616 38.0213 18.6583C38.0213 18.8571 38.0259 19.0438 38.003 19.2458C37.813 20.9301 36.3176 23.2345 35.1554 24.0458C33.4847 25.2121 31.3551 25.4119 29.4494 23.544C28.4635 22.5775 27.3968 20.8129 27.0103 19.3316C26.9249 19.0026 26.924 18.9635 26.924 18.6583C25.9042 18.9037 25.4268 16.2518 25.7784 15.1887C25.9987 14.5273 26.5513 14.4296 26.924 14.9367V14.6088L26.6468 14.4242C26.6137 14.1581 26.6101 13.8855 26.6229 13.6119C26.3696 13.1102 26.3007 12.6823 26.3806 12.3196C26.2686 12.1393 26.1997 11.9449 26.1851 11.7343V7.95079L31.1366 9.74045C31.6047 9.86099 32.0812 9.92289 32.5659 9.9218C33.0184 9.91854 33.4774 9.86099 33.9446 9.74045L39.1284 7.96925L39.2138 11.7006C39.1826 12.0514 39.1 12.35 38.9678 12.5965C38.9503 12.6291 38.9292 12.6617 38.9054 12.6932C39.0458 13.1113 39.0513 13.6043 38.8879 14.1831ZM29.823 23.1325C32.1069 25.1502 34.6845 24.3031 36.3745 21.7088C36.9767 20.7835 37.376 19.7323 37.4696 18.7821V14.2059C37.5229 14.2059 37.3898 13.9073 37.2346 13.5956C35.5997 14.1277 33.3287 14.4263 32.5558 14.3829C31.6112 14.3297 29.2915 14.0593 27.7263 13.3469C27.5758 13.4544 27.4739 13.6238 27.4289 13.8747V18.8831C27.7153 20.5131 28.7141 22.1518 29.823 23.1325ZM33.2993 15.4298C33.2195 15.5883 33.2424 15.7545 33.37 15.8381C33.6224 16.0064 33.9456 15.7556 34.1916 15.6633C34.8378 15.42 35.6062 15.3907 36.1652 15.8055C36.3139 15.9152 36.4663 16.0575 36.6196 16.2312C36.5627 15.9901 36.4737 15.7697 36.3433 15.5731C35.8522 14.8325 34.6946 14.7076 33.9134 15.0019C33.7225 15.0736 33.4049 15.2267 33.2993 15.4298ZM31.523 15.4765C31.5781 15.6198 31.5478 15.7632 31.434 15.8381C31.1797 16.0064 30.8584 15.7556 30.6124 15.6633C29.9662 15.42 29.1969 15.3907 28.637 15.8055C28.4882 15.9152 28.3368 16.0575 28.1826 16.2312C28.2404 15.9901 28.3304 15.7697 28.4598 15.5731C28.9509 14.8358 30.0965 14.7098 30.8777 14.9976C31.0833 15.0736 31.4331 15.2397 31.523 15.4765ZM28.9628 16.6482C28.9335 16.5364 28.9784 16.4136 29.0611 16.3756C29.7 16.0835 30.3508 16.102 30.9934 16.3756C31.076 16.4136 31.1228 16.5331 31.0971 16.646C31.0714 16.7579 30.9805 16.8187 30.8988 16.785C30.7923 16.7405 30.6859 16.7014 30.5794 16.6743C30.5979 16.7529 30.6008 16.8356 30.5878 16.9158C30.5748 16.996 30.5463 17.0716 30.5045 17.1366C30.4628 17.2016 30.4088 17.2543 30.3469 17.2905C30.2851 17.3267 30.217 17.3455 30.1479 17.3454C29.9019 17.3454 29.7 17.1076 29.7 16.8165C29.7 16.7438 29.7128 16.6765 29.7339 16.6146C29.5669 16.6352 29.3979 16.6808 29.23 16.7525C29.1244 16.7959 29.0142 16.8372 28.9628 16.6482ZM34.343 16.6482C34.3284 16.6982 34.321 16.7536 34.321 16.8111C34.321 17.1021 34.5221 17.34 34.769 17.34C34.8448 17.3399 34.9194 17.317 34.9858 17.2735C35.0521 17.2299 35.108 17.1671 35.1482 17.091C35.1884 17.0149 35.2116 16.928 35.2156 16.8384C35.2196 16.7488 35.2043 16.6594 35.1711 16.5787C35.3647 16.6037 35.5639 16.6547 35.7604 16.7297C35.8458 16.7633 35.9339 16.6971 35.9568 16.5809C35.9807 16.4669 35.9311 16.3485 35.8485 16.3159C35.5263 16.1899 35.205 16.128 34.8828 16.1302C34.5634 16.1302 34.243 16.1954 33.929 16.3181C33.8428 16.3517 33.7959 16.469 33.8189 16.5809C33.8428 16.6927 33.9336 16.7612 34.0162 16.7275C34.1172 16.6884 34.2191 16.6558 34.3201 16.6298C34.3596 16.6211 34.3522 16.6124 34.343 16.6482ZM31.8278 20.0462C31.8251 19.9854 31.8397 19.9245 31.8755 19.8735C31.9499 19.7703 32.0793 19.7573 32.1675 19.8431C32.3804 20.0549 32.5622 20.0505 32.7752 19.8409C32.8624 19.7541 32.9936 19.7703 33.0661 19.8735C33.1405 19.9778 33.1267 20.132 33.0386 20.2188C32.7063 20.5435 32.3336 20.5837 31.9774 20.2873C31.9022 20.2243 31.8342 20.1667 31.8278 20.0462ZM31.1439 21.6425C31.0999 21.4308 31.2917 21.2462 31.457 21.3526C32.1197 21.7674 32.7605 21.787 33.4223 21.3558C33.6757 21.1951 33.8795 21.6414 33.6325 21.8065C32.8917 22.2919 32.1151 22.305 31.3551 21.8673C31.2642 21.8152 31.1724 21.7739 31.1439 21.6425ZM26.8607 18.06V15.7708C26.7698 15.3223 26.6064 15.1919 26.4191 15.1496C25.9198 15.0573 25.962 17.9003 26.8387 18.0828C26.8671 18.0893 26.8607 18.0936 26.8607 18.06ZM36.6398 24.2782C40.2217 28.0909 45.266 23.2215 47 32.3446H17.9123C19.6519 23.2183 24.8053 27.9682 28.2725 24.2782C30.1387 27.6718 35.3721 27.5306 36.6398 24.2782ZM41.315 5.28151V9.84144H41.4371C41.5197 9.84144 41.5877 9.9218 41.5877 10.0206V11.2456C41.5877 11.3433 41.5197 11.4237 41.4371 11.4237H41.315V11.8537C41.4692 11.8874 41.5877 12.0503 41.5877 12.2425C41.5877 12.4597 41.4371 12.6378 41.2535 12.6378H40.6541C40.5707 12.6378 40.4903 12.601 40.4287 12.5345C40.3671 12.468 40.3287 12.3767 40.3212 12.2785C40.3136 12.1802 40.3373 12.0822 40.3877 12.0036C40.4381 11.925 40.5115 11.8716 40.5935 11.8537V11.4237H40.4714C40.3888 11.4237 40.3209 11.3433 40.3209 11.2456V10.0206C40.3209 9.9218 40.3888 9.84144 40.4714 9.84144H40.5935V5.54757L34.2852 7.86825C33.1423 8.1897 32.0004 8.21142 30.8575 7.86825L23.8947 5.40965L23.2659 5.18811C22.482 4.80803 22.6775 3.91754 23.4073 3.71338L31.2825 0.932248C32.0949 0.657501 32.9064 0.615148 33.7188 0.932248L41.4518 3.67972C42.2927 3.9208 42.4588 4.84278 41.4803 5.22069L41.315 5.28151ZM18.8477 14.0788L18.7734 10.7775L14.1863 12.3446C13.7723 12.451 13.3656 12.5031 12.9654 12.5042C12.5376 12.5064 12.1163 12.451 11.7013 12.3446L7.31988 10.7602V14.1092C7.33457 14.3058 7.40158 14.4861 7.5099 14.6533C7.41535 14.9324 7.46859 15.2962 7.70818 15.7697C7.69533 16.0129 7.699 16.254 7.7293 16.4886L7.97348 16.6526V16.9425C7.64484 16.4929 7.15465 16.5809 6.96004 17.1662C6.64977 18.1056 7.07203 20.4523 7.97348 20.2351C7.97348 20.5055 7.97531 20.5392 8.0515 20.8324C8.39207 22.1421 9.33666 23.7037 10.2078 24.5583C11.895 26.2101 13.7787 26.0341 15.2576 25.0014C16.2857 24.2847 17.6094 22.2452 17.7765 20.7553C17.7967 20.5772 17.793 20.4111 17.793 20.2351C17.8178 20.2384 17.8426 20.2384 17.871 20.233C19.0653 20.0266 19.2709 16.5755 18.2263 16.6623L18.5531 16.4202C18.5558 16.3702 18.5567 16.3224 18.5595 16.2757C18.7119 15.7349 18.699 15.3136 18.554 14.9834C18.5834 14.9465 18.61 14.9096 18.6302 14.8716C18.7468 14.6544 18.8202 14.3894 18.8477 14.0788ZM8.68398 15.5362C10.0692 16.1671 12.1218 16.405 12.9571 16.4517C13.6401 16.4908 15.6504 16.2269 17.0972 15.7566C17.2339 16.0314 17.3524 16.2953 17.3046 16.2953V20.3448C17.222 21.1853 16.8677 22.116 16.3353 22.9337C14.8408 25.2294 12.5596 25.9788 10.5392 24.1934C9.55789 23.3269 8.67389 21.876 8.42053 20.4339V16.0032C8.46 15.7816 8.54996 15.6318 8.68398 15.5362ZM20.7066 8.40037V12.4347H20.8149C20.8884 12.4347 20.948 12.5053 20.948 12.5922V13.676C20.948 13.7628 20.8875 13.8345 20.8149 13.8345H20.7066V14.2146C20.7744 14.23 20.8355 14.2727 20.8795 14.3355C20.9236 14.3983 20.9478 14.4772 20.948 14.5588C20.948 14.7511 20.8149 14.9085 20.6515 14.9085H20.1228C20.0445 14.9082 19.9694 14.8713 19.914 14.8058C19.8587 14.7403 19.8274 14.6515 19.8272 14.5588C19.8273 14.4772 19.8514 14.3981 19.8955 14.3353C19.9396 14.2724 20.0008 14.2298 20.0686 14.2146V13.8345H19.9603C19.8878 13.8345 19.8272 13.7639 19.8272 13.676V12.5922C19.8272 12.5053 19.8869 12.4347 19.9603 12.4347H20.0686V8.63494L14.4874 10.6885C13.4758 10.973 12.4651 10.9926 11.4544 10.6885L5.29393 8.51331L4.73764 8.31676C4.04365 7.98119 4.21623 7.19388 4.86248 7.01252L11.8299 4.55066C12.5486 4.30849 13.2674 4.27048 13.9853 4.55066L20.8287 6.98211C21.5713 7.19713 21.7191 8.0116 20.8535 8.34608L20.7066 8.40037ZM16.5703 25.2088C17.0999 25.7724 17.6663 26.1199 18.2483 26.348C17.3863 27.4654 16.6657 29.14 16.1627 31.6887C16.1076 31.8961 16.0773 32.1166 16.0773 32.3446H0C1.53943 24.2695 6.09898 28.4732 9.16684 25.2088C10.8183 28.2093 15.4485 28.0855 16.5703 25.2088ZM13.6162 17.3791C13.5446 17.5192 13.5648 17.6668 13.6768 17.7407C13.9008 17.8895 14.1863 17.6679 14.4038 17.5854C15.2328 17.2726 15.9268 17.3823 16.5528 18.0882C16.2673 16.8882 15.0391 16.6688 14.1578 17.0001C13.9889 17.0641 13.708 17.1988 13.6162 17.3791ZM12.0437 17.4192C12.0924 17.5463 12.0658 17.6744 11.9639 17.7407C11.7399 17.8895 11.4544 17.6679 11.2378 17.5854C10.4088 17.2726 9.71394 17.3823 9.08789 18.0882C9.37613 16.8926 10.5897 16.6699 11.4728 16.9968C11.6545 17.0641 11.9639 17.2097 12.0437 17.4192ZM9.77728 18.4574C9.75158 18.3575 9.79105 18.2489 9.86541 18.2163C10.4309 17.9568 11.0064 17.9731 11.5747 18.2163C11.6481 18.2489 11.6894 18.3553 11.6665 18.4542C11.6426 18.5541 11.5637 18.6073 11.4902 18.578C11.3966 18.5389 11.302 18.5041 11.2084 18.4791C11.2185 18.5193 11.2222 18.5606 11.2222 18.6062C11.2222 18.8636 11.0468 19.0742 10.8265 19.0742C10.608 19.0742 10.4309 18.8636 10.4309 18.6062C10.4309 18.541 10.4419 18.4824 10.4593 18.427C10.3115 18.4455 10.1628 18.4857 10.0141 18.5486C9.92049 18.5867 9.8241 18.6236 9.77728 18.4574ZM14.5379 18.4563C14.5259 18.5009 14.5195 18.5497 14.5195 18.6019C14.5195 18.8581 14.6976 19.0688 14.9142 19.0688C15.1327 19.0688 15.3108 18.8581 15.3108 18.6019C15.3108 18.5258 15.2961 18.4574 15.2704 18.3955C15.443 18.4172 15.6183 18.4618 15.7927 18.5291C15.868 18.5584 15.9451 18.4998 15.9662 18.3977C15.9873 18.2967 15.9433 18.1924 15.8698 18.162C15.5853 18.0513 15.3007 17.9959 15.0161 17.9991C14.7325 17.9991 14.4497 18.0556 14.1716 18.1653C14.0963 18.1946 14.0541 18.2978 14.0743 18.3977C14.0963 18.4965 14.1753 18.5562 14.2496 18.5258C14.3378 18.4933 14.4277 18.4629 14.5177 18.4411C14.5526 18.4324 14.5461 18.4259 14.5379 18.4563ZM12.3127 21.4623C12.3109 21.4101 12.3237 21.3548 12.3549 21.3113C12.421 21.219 12.5349 21.2071 12.6129 21.2842C12.802 21.471 12.9626 21.4666 13.1508 21.282C13.2288 21.2049 13.3445 21.219 13.4088 21.3113C13.473 21.4025 13.462 21.5394 13.384 21.6165C13.0902 21.9032 12.7598 21.939 12.4458 21.6773C12.3779 21.6208 12.3182 21.5709 12.3127 21.4623ZM11.7078 22.8751C11.6692 22.6883 11.8381 22.5254 11.985 22.6188C12.5707 22.9859 13.138 23.0032 13.7236 22.6221C13.9476 22.4798 14.1285 22.874 13.91 23.0206C13.2536 23.4496 12.567 23.4615 11.895 23.0749C11.8143 23.0293 11.7326 22.9913 11.7078 22.8751ZM7.91748 19.7052V17.681C7.83762 17.2835 7.69258 17.1673 7.52734 17.1304C7.0858 17.05 7.12252 19.564 7.8982 19.7258C7.92299 19.7312 7.91748 19.7367 7.91748 19.7052Z" fill="#537188"/>
</svg>
