<svg width="22" height="22" viewBox="0 0 22 22" fill="none" xmlns="http://www.w3.org/2000/svg">
<path d="M10.9467 17.9157C11.1508 17.9157 11.3503 17.8597 11.52 17.7548C11.6896 17.6499 11.8219 17.5009 11.9 17.3264C11.9781 17.152 11.9985 16.9601 11.9587 16.7749C11.9189 16.5898 11.8206 16.4197 11.6763 16.2862C11.532 16.1527 11.3482 16.0618 11.148 16.025C10.9479 15.9881 10.7404 16.007 10.5519 16.0793C10.3633 16.1515 10.2022 16.2739 10.0888 16.4308C9.97542 16.5878 9.91491 16.7724 9.91491 16.9612C9.91491 17.2143 10.0236 17.4571 10.2171 17.6361C10.4106 17.8151 10.6731 17.9157 10.9467 17.9157ZM16.1057 17.9157C16.3098 17.9157 16.5093 17.8597 16.679 17.7548C16.8487 17.6499 16.9809 17.5009 17.059 17.3264C17.1371 17.152 17.1575 16.9601 17.1177 16.7749C17.0779 16.5898 16.9796 16.4197 16.8353 16.2862C16.691 16.1527 16.5072 16.0618 16.307 16.025C16.1069 15.9881 15.8994 16.007 15.7109 16.0793C15.5223 16.1515 15.3612 16.2739 15.2478 16.4308C15.1344 16.5878 15.0739 16.7724 15.0739 16.9612C15.0739 17.2143 15.1826 17.4571 15.3761 17.6361C15.5696 17.8151 15.8321 17.9157 16.1057 17.9157ZM16.1057 14.0975C16.3098 14.0975 16.5093 14.0415 16.679 13.9367C16.8487 13.8318 16.9809 13.6827 17.059 13.5083C17.1371 13.3338 17.1575 13.1419 17.1177 12.9568C17.0779 12.7716 16.9796 12.6015 16.8353 12.468C16.691 12.3345 16.5072 12.2436 16.307 12.2068C16.1069 12.1699 15.8994 12.1888 15.7109 12.2611C15.5223 12.3333 15.3612 12.4557 15.2478 12.6127C15.1344 12.7696 15.0739 12.9542 15.0739 13.143C15.0739 13.3961 15.1826 13.6389 15.3761 13.8179C15.5696 13.997 15.8321 14.0975 16.1057 14.0975ZM10.9467 14.0975C11.1508 14.0975 11.3503 14.0415 11.52 13.9367C11.6896 13.8318 11.8219 13.6827 11.9 13.5083C11.9781 13.3338 11.9985 13.1419 11.9587 12.9568C11.9189 12.7716 11.8206 12.6015 11.6763 12.468C11.532 12.3345 11.3482 12.2436 11.148 12.2068C10.9479 12.1699 10.7404 12.1888 10.5519 12.2611C10.3633 12.3333 10.2022 12.4557 10.0888 12.6127C9.97542 12.7696 9.91491 12.9542 9.91491 13.143C9.91491 13.3961 10.0236 13.6389 10.2171 13.8179C10.4106 13.997 10.6731 14.0975 10.9467 14.0975ZM18.1693 2.64298H17.1375V1.68843C17.1375 1.43527 17.0288 1.19248 16.8353 1.01347C16.6418 0.834455 16.3794 0.733887 16.1057 0.733887C15.8321 0.733887 15.5696 0.834455 15.3761 1.01347C15.1826 1.19248 15.0739 1.43527 15.0739 1.68843V2.64298H6.81949V1.68843C6.81949 1.43527 6.71078 1.19248 6.51728 1.01347C6.32378 0.834455 6.06134 0.733887 5.78769 0.733887C5.51404 0.733887 5.25159 0.834455 5.05809 1.01347C4.86459 1.19248 4.75588 1.43527 4.75588 1.68843V2.64298H3.72408C2.90312 2.64298 2.11579 2.94468 1.53529 3.48172C0.954785 4.01875 0.628662 4.74713 0.628662 5.50661V18.8703C0.628662 19.6297 0.954785 20.3581 1.53529 20.8951C2.11579 21.4322 2.90312 21.7339 3.72408 21.7339H18.1693C18.9903 21.7339 19.7776 21.4322 20.3581 20.8951C20.9386 20.3581 21.2648 19.6297 21.2648 18.8703V5.50661C21.2648 4.74713 20.9386 4.01875 20.3581 3.48172C19.7776 2.94468 18.9903 2.64298 18.1693 2.64298ZM19.2012 18.8703C19.2012 19.1234 19.0924 19.3662 18.8989 19.5452C18.7054 19.7242 18.443 19.8248 18.1693 19.8248H3.72408C3.45043 19.8248 3.18798 19.7242 2.99448 19.5452C2.80098 19.3662 2.69227 19.1234 2.69227 18.8703V10.2793H19.2012V18.8703ZM19.2012 8.37025H2.69227V5.50661C2.69227 5.25345 2.80098 5.01066 2.99448 4.83165C3.18798 4.65264 3.45043 4.55207 3.72408 4.55207H4.75588V5.50661C4.75588 5.75978 4.86459 6.00257 5.05809 6.18158C5.25159 6.36059 5.51404 6.46116 5.78769 6.46116C6.06134 6.46116 6.32378 6.36059 6.51728 6.18158C6.71078 6.00257 6.81949 5.75978 6.81949 5.50661V4.55207H15.0739V5.50661C15.0739 5.75978 15.1826 6.00257 15.3761 6.18158C15.5696 6.36059 15.8321 6.46116 16.1057 6.46116C16.3794 6.46116 16.6418 6.36059 16.8353 6.18158C17.0288 6.00257 17.1375 5.75978 17.1375 5.50661V4.55207H18.1693C18.443 4.55207 18.7054 4.65264 18.8989 4.83165C19.0924 5.01066 19.2012 5.25345 19.2012 5.50661V8.37025ZM5.78769 14.0975C5.99176 14.0975 6.19125 14.0415 6.36093 13.9367C6.53061 13.8318 6.66286 13.6827 6.74095 13.5083C6.81905 13.3338 6.83948 13.1419 6.79967 12.9568C6.75985 12.7716 6.66158 12.6015 6.51728 12.468C6.37298 12.3345 6.18913 12.2436 5.98898 12.2068C5.78883 12.1699 5.58137 12.1888 5.39283 12.2611C5.20429 12.3333 5.04315 12.4557 4.92977 12.6127C4.8164 12.7696 4.75588 12.9542 4.75588 13.143C4.75588 13.3961 4.86459 13.6389 5.05809 13.8179C5.25159 13.997 5.51404 14.0975 5.78769 14.0975ZM5.78769 17.9157C5.99176 17.9157 6.19125 17.8597 6.36093 17.7548C6.53061 17.6499 6.66286 17.5009 6.74095 17.3264C6.81905 17.152 6.83948 16.9601 6.79967 16.7749C6.75985 16.5898 6.66158 16.4197 6.51728 16.2862C6.37298 16.1527 6.18913 16.0618 5.98898 16.025C5.78883 15.9881 5.58137 16.007 5.39283 16.0793C5.20429 16.1515 5.04315 16.2739 4.92977 16.4308C4.8164 16.5878 4.75588 16.7724 4.75588 16.9612C4.75588 17.2143 4.86459 17.4571 5.05809 17.6361C5.25159 17.8151 5.51404 17.9157 5.78769 17.9157Z" fill="white"/>
</svg>
