<svg width="22" height="19" viewBox="0 0 22 19" fill="none" xmlns="http://www.w3.org/2000/svg">
<path d="M21.6191 15.9036L20.5999 12.1403L17.3896 0.840797C17.3202 0.591544 17.1504 0.378748 16.9174 0.249009C16.6843 0.119269 16.407 0.0831605 16.1462 0.14859L12.2021 1.12353C12.1079 1.02374 11.9932 0.943646 11.8652 0.88828C11.7372 0.832914 11.5986 0.80347 11.4581 0.8018H1.26647C0.996176 0.8018 0.736949 0.904516 0.545819 1.08735C0.35469 1.27019 0.247314 1.51817 0.247314 1.77674V17.3758C0.247314 17.6343 0.35469 17.8823 0.545819 18.0652C0.736949 18.248 0.996176 18.3507 1.26647 18.3507H11.4581C11.7284 18.3507 11.9876 18.248 12.1787 18.0652C12.3699 17.8823 12.4772 17.6343 12.4772 17.3758V9.57626L14.7194 17.5903C14.7791 17.803 14.9123 17.99 15.0974 18.121C15.2825 18.252 15.5085 18.3193 15.7385 18.3117C15.8266 18.3213 15.9155 18.3213 16.0035 18.3117L20.9261 17.054C21.0562 17.0208 21.1782 16.9631 21.2849 16.8845C21.3916 16.8058 21.4809 16.7077 21.5477 16.5958C21.6553 16.3801 21.6805 16.1352 21.6191 15.9036ZM5.31254 16.4398H2.25506V14.49H5.31254V16.4398ZM5.31254 12.5401H2.25506V6.69043H5.31254V12.5401ZM5.31254 4.74056H2.25506V2.79068H5.31254V4.74056ZM10.4083 16.4398H7.35086V14.49H10.4083V16.4398ZM10.4083 12.5401H7.35086V6.69043H10.4083V12.5401ZM10.4083 4.74056H7.35086V2.79068H10.4083V4.74056ZM12.7014 3.04416L15.657 2.28371L16.187 4.16534L13.2314 4.92579L12.7014 3.04416ZM15.3411 12.4621L13.7614 6.80743L16.7169 6.04697L18.2966 11.7016L15.3411 12.4621ZM16.3602 16.2253L15.8303 14.3437L18.7858 13.5833L19.3158 15.4649L16.3602 16.2253Z" fill="white"/>
</svg>
