<svg width="21" height="22" viewBox="0 0 21 22" fill="none" xmlns="http://www.w3.org/2000/svg">
<g clip-path="url(#clip0_2110_9923)">
<path d="M10.5073 21.7339C4.73232 21.7339 0.00732422 17.0089 0.00732422 11.2339C0.00732422 5.45889 4.73232 0.733887 10.5073 0.733887C16.2823 0.733887 21.0073 5.45889 21.0073 11.2339C21.0073 17.0089 16.2823 21.7339 10.5073 21.7339ZM8.31982 15.6089C8.84482 18.3214 9.80732 19.9839 10.5073 19.9839C11.2073 19.9839 12.1698 18.3214 12.6948 15.6089H8.31982ZM14.5323 15.6089C14.2698 17.0964 13.8323 18.4964 13.3073 19.5464C15.3198 18.8464 17.0698 17.4464 18.1198 15.6089H14.5323ZM2.89482 15.6089C3.94482 17.4464 5.69482 18.8464 7.70732 19.5464C7.18232 18.4964 6.74482 17.0964 6.48232 15.6089H2.89482ZM14.7948 13.8589H18.9073C19.0823 13.0714 19.2573 12.1089 19.2573 11.2339C19.2573 10.3589 19.0823 9.39639 18.8198 8.60889H14.7073C14.8823 9.48389 14.8823 10.3589 14.8823 11.2339C14.8823 12.1089 14.8823 12.9839 14.7948 13.8589ZM8.05732 13.8589H13.0448C13.1323 13.0714 13.2198 12.1964 13.2198 11.2339C13.2198 10.2714 13.1323 9.39639 13.0448 8.60889H8.05732C7.96982 9.39639 7.88232 10.2714 7.88232 11.2339C7.88232 12.1964 7.96982 13.0714 8.05732 13.8589ZM2.19482 13.8589H6.30732C6.21982 12.9839 6.21982 12.1089 6.21982 11.2339C6.21982 10.3589 6.21982 9.48389 6.30732 8.60889H2.19482C1.93232 9.39639 1.75732 10.3589 1.75732 11.2339C1.75732 12.1089 1.93232 13.0714 2.19482 13.8589ZM14.5323 6.85889H18.1198C17.0698 5.02139 15.3198 3.62139 13.3073 2.92139C13.8323 3.97139 14.2698 5.37139 14.5323 6.85889ZM8.31982 6.85889H12.7823C12.2573 4.14639 11.2948 2.48389 10.5948 2.48389C9.89482 2.48389 8.84482 4.14639 8.31982 6.85889ZM2.89482 6.85889H6.48232C6.74482 5.37139 7.18232 3.97139 7.70732 2.92139C5.69482 3.62139 4.03232 5.02139 2.89482 6.85889Z" fill="white"/>
</g>
<defs>
<clipPath id="clip0_2110_9923">
<rect width="21" height="21" fill="white" transform="translate(0.00732422 0.733887)"/>
</clipPath>
</defs>
</svg>
