<svg width="37" height="39" viewBox="0 0 37 39" fill="none" xmlns="http://www.w3.org/2000/svg">
<path d="M2 19.8153V31.7326C2 35.6826 6.33507 38.1794 9.86263 36.2611L15.3414 33.2817M2 12.9732V7.89787C2 3.94789 6.33507 1.45111 9.86261 3.36939L31.7778 15.2868C35.4074 17.2606 35.4074 22.3699 31.7778 24.3437L20.8202 30.3025" fill="#D9D9D9"/>
<path d="M2 19.8153V31.7326C2 35.6826 6.33507 38.1794 9.86263 36.2611L15.3414 33.2817M2 12.9732V7.89787C2 3.94789 6.33507 1.45111 9.86261 3.36939L31.7778 15.2868C35.4074 17.2606 35.4074 22.3699 31.7778 24.3437L20.8202 30.3025" stroke="#557B97" stroke-width="3.75" stroke-linecap="round"/>
</svg>
