<svg width="60" height="52" viewBox="0 0 60 52" fill="none" xmlns="http://www.w3.org/2000/svg">
<path d="M58.1561 8.77142H45.895V7.40933C45.895 3.68901 42.998 0.661865 39.4369 0.661865H20.5525C16.9915 0.661865 14.0944 3.6887 14.0944 7.40933V8.77142H1.83329C0.90701 8.77142 0.153442 9.55876 0.153442 10.5265V16.3591L12.4776 27.2407C12.7338 26.7538 13.2236 26.4197 13.793 26.4197H17.8623C18.6945 26.4197 19.3694 27.1248 19.3694 27.9944V29.0063H40.62V27.9944C40.62 27.1248 41.2949 26.4197 42.1272 26.4197H46.1964C46.7658 26.4197 47.2556 26.7535 47.5118 27.2407L59.836 16.3591V10.5265C59.836 9.55876 59.0824 8.77142 58.1561 8.77142ZM17.1087 7.40933C17.1087 5.42525 18.6535 3.81121 20.5525 3.81121H39.4366C41.3356 3.81121 42.8804 5.42525 42.8804 7.40933V8.77142H17.1084L17.1087 7.40933ZM47.7036 31.1947L58.2586 21.8752V46.6372C58.2586 49.1274 56.3195 51.1531 53.9365 51.1531H6.05327C3.66989 51.1531 1.73111 49.1271 1.73111 46.6372V21.8752L12.2862 31.1947V34.7261C12.2862 35.5956 12.9611 36.3008 13.7933 36.3008H17.8626C18.6948 36.3008 19.3697 35.5956 19.3697 34.7261V32.1556H40.6203V34.7261C40.6203 35.5956 41.2952 36.3008 42.1275 36.3008H46.1967C47.029 36.3008 47.7039 35.5956 47.7039 34.7261V31.1947H47.7036Z" fill="#537188"/>
</svg>
