<svg width="59" height="60" viewBox="0 0 59 60" fill="none" xmlns="http://www.w3.org/2000/svg">
<g filter="url(#filter0_d_185_116)">
<path d="M54.365 41.9383V49.8471C54.365 50.5682 53.7042 51.1531 52.8893 51.1531H6.10516C5.29031 51.1531 4.62952 50.5682 4.62952 49.8471V41.9383C4.62952 38.6295 6.86719 35.6965 10.3332 34.46L20.393 30.5497C20.7672 30.4042 21.1925 30.4026 21.5676 30.545C21.943 30.6873 22.2348 30.9613 22.3739 31.3011L25.306 38.4754L26.5561 36.6047L25.736 34.6042C25.5719 34.2038 25.6386 33.758 25.9148 33.409C26.1911 33.0603 26.642 32.8527 27.1231 32.8527H31.8717C32.3528 32.8527 32.804 33.0603 33.08 33.409C33.3562 33.7577 33.4229 34.2036 33.2588 34.604L32.4384 36.6045L33.6885 38.4751L36.6206 31.3009C36.7596 30.9611 37.0515 30.6871 37.4269 30.5447C37.802 30.4024 38.2276 30.4039 38.6015 30.5494L48.6613 34.4598C52.127 35.6968 54.365 38.6298 54.365 41.9383ZM50.0965 0.661865H8.89767C8.08282 0.661865 7.42203 1.24668 7.42203 1.96784C7.42203 2.64852 8.01288 3.20121 8.76398 3.26181V13.0559C8.22744 13.4471 7.88302 14.0455 7.88302 14.716C7.88302 15.8919 8.94017 16.8487 10.2396 16.8487C11.5391 16.8487 12.5959 15.8919 12.5959 14.716C12.5959 14.0455 12.2515 13.4471 11.7153 13.0559V3.27382H16.1357V8.4993H42.8585V3.27382H50.0965C50.9114 3.27382 51.5722 2.689 51.5722 1.96784C51.5722 1.24668 50.9114 0.661865 50.0965 0.661865ZM42.7153 16.3464C42.4158 15.9374 42.0619 15.6485 41.7231 15.445C41.7166 14.9305 41.6753 14.2354 41.5451 13.4406C41.5838 13.0135 41.652 11.887 41.4844 10.5233H29.4971H17.5098C17.3422 11.887 17.4104 13.0133 17.449 13.4406C17.3192 14.2354 17.2776 14.9305 17.2711 15.445C16.9323 15.6485 16.5784 15.9374 16.2789 16.3464C15.5519 17.3395 15.4247 18.6603 15.9011 20.2724C16.7652 23.1968 18.763 23.9164 19.9107 24.0814C20.5987 25.2889 22.0318 27.6172 23.4729 28.8078C24.0729 29.3035 24.85 29.7207 25.7823 30.0482C26.9661 30.464 28.2159 30.6745 29.4971 30.6745C30.7782 30.6745 32.0281 30.4638 33.2119 30.0482C34.1442 29.7207 34.9213 29.3033 35.5213 28.8078C36.9627 27.6172 38.3958 25.2889 39.0835 24.0814C40.2312 23.9164 42.229 23.1965 43.0931 20.2724C43.5694 18.6603 43.4425 17.3395 42.7153 16.3464Z" fill="#537188"/>
</g>
<defs>
<filter id="filter0_d_185_116" x="0.629517" y="0.661865" width="57.7355" height="58.4912" filterUnits="userSpaceOnUse" color-interpolation-filters="sRGB">
<feFlood flood-opacity="0" result="BackgroundImageFix"/>
<feColorMatrix in="SourceAlpha" type="matrix" values="0 0 0 0 0 0 0 0 0 0 0 0 0 0 0 0 0 0 127 0" result="hardAlpha"/>
<feOffset dy="4"/>
<feGaussianBlur stdDeviation="2"/>
<feComposite in2="hardAlpha" operator="out"/>
<feColorMatrix type="matrix" values="0 0 0 0 0 0 0 0 0 0 0 0 0 0 0 0 0 0 0.25 0"/>
<feBlend mode="normal" in2="BackgroundImageFix" result="effect1_dropShadow_185_116"/>
<feBlend mode="normal" in="SourceGraphic" in2="effect1_dropShadow_185_116" result="shape"/>
</filter>
</defs>
</svg>
