<svg width="21" height="20" viewBox="0 0 21 20" fill="none" xmlns="http://www.w3.org/2000/svg">
<g clip-path="url(#clip0_317_410)">
<path d="M18.429 3.04344H18.068V0.904093C18.068 0.40555 17.6624 0 17.1639 0H10.5561C10.0577 0 9.65206 0.40555 9.65206 0.904093V3.04344H9.44963C9.41269 2.72485 9.27595 2.42925 9.05002 2.19471C8.77026 1.90419 8.39244 1.74421 7.98629 1.74421H3.00654C2.60039 1.74421 2.22265 1.90419 1.94281 2.19471C1.66297 2.48531 1.51729 2.86882 1.53244 3.27462L1.78223 9.93107C1.79919 10.3845 1.79953 11.1507 1.78292 11.6042L1.53167 18.4702C1.51686 18.8759 1.66289 19.2593 1.9429 19.5497C2.22291 19.84 2.60065 19.9999 3.00654 19.9999H7.98629C8.39227 19.9999 8.77009 19.84 9.05002 19.5496C9.21353 19.38 9.32977 19.178 9.39658 18.9591H18.132C19.2003 18.9591 20.0694 18.09 20.0694 17.0217V4.98078C20.0694 3.91248 19.3335 3.04344 18.429 3.04344ZM10.9436 1.29156H16.7764V5.92095H10.9436V1.29156ZM8.12026 18.6532C8.09598 18.6784 8.0531 18.7084 7.98637 18.7084H3.00654C2.93981 18.7084 2.89693 18.6784 2.87265 18.6532C2.84837 18.6281 2.81995 18.584 2.82237 18.5174L3.0737 11.6513C3.09153 11.1637 3.09118 10.3703 3.07293 9.8826L2.82314 3.22615C2.82064 3.15959 2.84889 3.11568 2.87308 3.09062C2.89719 3.06556 2.93998 3.03569 3.00654 3.03569H7.98629C8.05284 3.03569 8.09564 3.06556 8.11975 3.09062C8.14394 3.11576 8.17218 3.15959 8.16969 3.22615L7.91999 9.88268C7.90173 10.3705 7.9013 11.164 7.91912 11.6513L8.17038 18.5174C8.17287 18.5841 8.14446 18.6281 8.12026 18.6532ZM18.7779 17.0218C18.7779 17.378 18.4882 17.6676 18.1321 17.6676H9.4318L9.20991 11.6042C9.19329 11.151 9.19372 10.3848 9.21069 9.93107L9.42061 4.335H9.65206V6.30842C9.65206 6.80696 10.0577 7.21251 10.5561 7.21251H17.1639C17.6624 7.21251 18.068 6.80696 18.068 6.30842V4.335H18.429C18.5679 4.335 18.7779 4.59253 18.7779 4.98078V17.0218Z" fill="#537188"/>
<path d="M11.3687 9.07959H10.6424C10.2857 9.07959 9.99658 9.36873 9.99658 9.72537C9.99658 10.082 10.2857 10.3712 10.6424 10.3712H11.3687C11.7253 10.3712 12.0144 10.082 12.0144 9.72537C12.0144 9.36873 11.7253 9.07959 11.3687 9.07959Z" fill="#537188"/>
<path d="M14.1801 9.07959H13.4538C13.0971 9.07959 12.808 9.36873 12.808 9.72537C12.808 10.082 13.0971 10.3712 13.4538 10.3712H14.1801C14.5367 10.3712 14.8258 10.082 14.8258 9.72537C14.8258 9.36873 14.5367 9.07959 14.1801 9.07959Z" fill="#537188"/>
<path d="M16.9915 9.07959H16.2652C15.9085 9.07959 15.6194 9.36873 15.6194 9.72537C15.6194 10.082 15.9085 10.3712 16.2652 10.3712H16.9915C17.3481 10.3712 17.6372 10.082 17.6372 9.72537C17.6372 9.36873 17.3482 9.07959 16.9915 9.07959Z" fill="#537188"/>
<path d="M11.3687 11.5513H10.6424C10.2857 11.5513 9.99658 11.8404 9.99658 12.1971C9.99658 12.5537 10.2857 12.8428 10.6424 12.8428H11.3687C11.7253 12.8428 12.0144 12.5537 12.0144 12.1971C12.0144 11.8404 11.7253 11.5513 11.3687 11.5513Z" fill="#537188"/>
<path d="M14.1801 11.5513H13.4538C13.0971 11.5513 12.808 11.8404 12.808 12.1971C12.808 12.5537 13.0971 12.8428 13.4538 12.8428H14.1801C14.5367 12.8428 14.8258 12.5537 14.8258 12.1971C14.8258 11.8404 14.5367 11.5513 14.1801 11.5513Z" fill="#537188"/>
<path d="M16.9915 11.5513H16.2652C15.9085 11.5513 15.6194 11.8404 15.6194 12.1971C15.6194 12.5537 15.9085 12.8428 16.2652 12.8428H16.9915C17.3481 12.8428 17.6372 12.5537 17.6372 12.1971C17.6372 11.8404 17.3482 11.5513 16.9915 11.5513Z" fill="#537188"/>
<path d="M11.3687 14.0229H10.6424C10.2857 14.0229 9.99658 14.3121 9.99658 14.6687C9.99658 15.0254 10.2857 15.3145 10.6424 15.3145H11.3687C11.7253 15.3145 12.0144 15.0254 12.0144 14.6687C12.0144 14.3121 11.7253 14.0229 11.3687 14.0229Z" fill="#537188"/>
<path d="M14.1801 14.0229H13.4538C13.0971 14.0229 12.808 14.3121 12.808 14.6687C12.808 15.0254 13.0971 15.3145 13.4538 15.3145H14.1801C14.5367 15.3145 14.8258 15.0254 14.8258 14.6687C14.8258 14.3121 14.5367 14.0229 14.1801 14.0229Z" fill="#537188"/>
<path d="M16.9915 14.0229H16.2652C15.9085 14.0229 15.6194 14.3121 15.6194 14.6687C15.6194 15.0254 15.9085 15.3145 16.2652 15.3145H16.9915C17.3481 15.3145 17.6372 15.0254 17.6372 14.6687C17.6372 14.3121 17.3482 14.0229 16.9915 14.0229Z" fill="#537188"/>
<path d="M15.3812 1.95947H12.3388C12.1011 1.95947 11.9083 2.15226 11.9083 2.38999C11.9083 2.62773 12.1011 2.82051 12.3388 2.82051H15.3812C15.619 2.82051 15.8118 2.62773 15.8118 2.38999C15.8118 2.15226 15.619 1.95947 15.3812 1.95947Z" fill="#537188"/>
<path d="M14.1355 3.81738H12.3388C12.1011 3.81738 11.9083 4.01017 11.9083 4.2479C11.9083 4.48564 12.1011 4.67842 12.3388 4.67842H14.1355C14.3732 4.67842 14.566 4.48564 14.566 4.2479C14.566 4.01017 14.3732 3.81738 14.1355 3.81738Z" fill="#537188"/>
</g>
<defs>
<clipPath id="clip0_317_410">
<rect width="20" height="20" fill="white" transform="translate(0.800049)"/>
</clipPath>
</defs>
</svg>
