<svg width="20" height="24" viewBox="0 0 20 24" fill="none" xmlns="http://www.w3.org/2000/svg">
<path d="M10.0001 0C4.47756 0 6.10352e-05 4.02975 6.10352e-05 9C6.10352e-05 10.9571 0.712978 12.753 1.89798 14.2238C1.91923 14.259 1.92256 14.2984 1.94673 14.3321L8.61339 23.3321C8.92256 23.7495 9.44339 24 10.0001 24C10.5567 24 11.0776 23.7495 11.3867 23.3321L18.0534 14.3321C18.078 14.2984 18.0809 14.259 18.1021 14.2238C19.2871 12.753 20.0001 10.9571 20.0001 9C20.0001 4.02975 15.5226 0 10.0001 0ZM10.0001 12C8.15923 12 6.66673 10.6567 6.66673 9C6.66673 7.34325 8.15923 6 10.0001 6C11.8409 6 13.3334 7.34325 13.3334 9C13.3334 10.6567 11.8409 12 10.0001 12Z" fill="#537188"/>
</svg>
