<svg width="25" height="24" viewBox="0 0 25 24" fill="none" xmlns="http://www.w3.org/2000/svg">
<path d="M9.18447 2.47912C9.70957 2.3208 10.2731 2.34711 10.7811 2.55365C11.2892 2.7602 11.7112 3.13453 11.9769 3.61432L12.0657 3.79312L12.8601 5.55832C13.1012 6.09411 13.1794 6.68894 13.0851 7.26885C12.9908 7.84876 12.7281 8.38814 12.3297 8.81992L12.1701 8.97832L10.9185 10.1459C10.6929 10.3595 10.8621 11.1863 11.6781 12.5999C12.4125 13.8719 13.0101 14.4659 13.3041 14.4983H13.3557L13.4193 14.4863L15.8793 13.7339C16.2099 13.6325 16.5627 13.6285 16.8955 13.7224C17.2284 13.8162 17.5271 14.004 17.7561 14.2631L17.8653 14.4011L19.4937 16.6571C19.8128 17.0993 19.9718 17.637 19.9446 18.1817C19.9173 18.7263 19.7054 19.2454 19.3437 19.6535L19.1973 19.8047L18.5469 20.4215C17.9628 20.9746 17.2322 21.3484 16.442 21.4984C15.6517 21.6483 14.8349 21.5682 14.0889 21.2675C11.7669 20.3315 9.65727 18.1931 7.74087 14.8739C5.82087 11.5463 5.02287 8.64592 5.37927 6.16192C5.48712 5.41104 5.79632 4.70339 6.27404 4.11412C6.75175 3.52485 7.38014 3.07596 8.09247 2.81512L8.32407 2.73832L9.18447 2.47912Z" fill="#537188"/>
</svg>
