<svg width="14" height="18" viewBox="0 0 14 18" fill="none" xmlns="http://www.w3.org/2000/svg">
<path d="M12.0718 10.2399C13.0815 10.2399 13.9 11.0965 13.9 12.1533V12.9229C13.9 13.853 13.5121 14.7367 12.8378 15.3425C11.5659 16.4854 9.74554 17.044 7.39735 17.044C5.04956 17.044 3.23046 16.4856 1.96059 15.343C1.28732 14.7372 0.900024 13.8541 0.900024 12.9248V12.1533C0.900024 11.0965 1.71853 10.2399 2.72821 10.2399H12.0718ZM7.31492 0.0414669L7.39761 0.0356445C7.70613 0.0356445 7.96109 0.275586 8.00145 0.586894L8.00701 0.673439L8.00637 1.31038L10.8506 1.31081C11.8603 1.31081 12.6788 2.16746 12.6788 3.2242V7.05487C12.6788 8.1116 11.8603 8.96825 10.8506 8.96825H3.94412C2.93444 8.96825 2.11593 8.1116 2.11593 7.05487V3.2242C2.11593 2.16746 2.93444 1.31081 3.94412 1.31081L6.78758 1.31038L6.78822 0.673439C6.78822 0.350549 7.01748 0.0836995 7.31492 0.0414669ZM5.56859 3.86199C5.00798 3.86199 4.55351 4.33764 4.55351 4.92438C4.55351 5.51112 5.00798 5.98677 5.56859 5.98677C6.1292 5.98677 6.58367 5.51112 6.58367 4.92438C6.58367 4.33764 6.1292 3.86199 5.56859 3.86199ZM9.21905 3.86199C8.65843 3.86199 8.20397 4.33764 8.20397 4.92438C8.20397 5.51112 8.65843 5.98677 9.21905 5.98677C9.77966 5.98677 10.2341 5.51112 10.2341 4.92438C10.2341 4.33764 9.77966 3.86199 9.21905 3.86199Z" fill="#537188"/>
</svg>
