<svg width="59" height="59" viewBox="0 0 59 59" fill="none" xmlns="http://www.w3.org/2000/svg">
<g filter="url(#filter0_d_68_47)">
<path d="M54.426 43.5637L52.0453 33.2443L44.5461 2.2595C44.384 1.57601 43.9874 0.992497 43.443 0.636735C42.8986 0.280973 42.2509 0.181958 41.6416 0.361375L32.4283 3.03478C32.2084 2.76115 31.9405 2.54152 31.6415 2.3897C31.3424 2.23788 31.0186 2.15714 30.6904 2.15256H6.88339C6.25199 2.15256 5.64644 2.43422 5.19998 2.93558C4.75351 3.43694 4.50269 4.11694 4.50269 4.82597V47.6005C4.50269 48.3096 4.75351 48.9895 5.19998 49.4909C5.64644 49.9923 6.25199 50.2739 6.88339 50.2739H30.6904C31.3218 50.2739 31.9273 49.9923 32.3738 49.4909C32.8203 48.9895 33.0711 48.3096 33.0711 47.6005V26.2132L38.3086 48.1887C38.4481 48.7719 38.7594 49.2849 39.1917 49.6441C39.624 50.0034 40.1519 50.1877 40.6893 50.167C40.895 50.1933 41.1027 50.1933 41.3083 50.167L52.8071 46.7183C53.1111 46.627 53.396 46.469 53.6452 46.2533C53.8945 46.0376 54.1032 45.7686 54.2593 45.4618C54.5105 44.8703 54.5694 44.1988 54.426 43.5637ZM16.3348 45.034H9.19267V39.6872H16.3348V45.034ZM16.3348 34.3404H9.19267V18.2999H16.3348V34.3404ZM16.3348 12.9531H9.19267V7.60631H16.3348V12.9531ZM28.2383 45.034H21.0962V39.6872H28.2383V45.034ZM28.2383 34.3404H21.0962V18.2999H28.2383V34.3404ZM28.2383 12.9531H21.0962V7.60631H28.2383V12.9531ZM33.5949 8.3014L40.4989 6.21614L41.7368 11.3758L34.8328 13.4611L33.5949 8.3014ZM39.7609 34.1265L36.0708 18.6208L42.9748 16.5355L46.6649 32.0413L39.7609 34.1265ZM42.1416 44.4459L40.9036 39.2862L47.8076 37.201L49.0456 42.3606L42.1416 44.4459Z" fill="#537188"/>
</g>
<defs>
<filter id="filter0_d_68_47" x="0.502686" y="0.273926" width="58" height="58" filterUnits="userSpaceOnUse" color-interpolation-filters="sRGB">
<feFlood flood-opacity="0" result="BackgroundImageFix"/>
<feColorMatrix in="SourceAlpha" type="matrix" values="0 0 0 0 0 0 0 0 0 0 0 0 0 0 0 0 0 0 127 0" result="hardAlpha"/>
<feOffset dy="4"/>
<feGaussianBlur stdDeviation="2"/>
<feComposite in2="hardAlpha" operator="out"/>
<feColorMatrix type="matrix" values="0 0 0 0 0 0 0 0 0 0 0 0 0 0 0 0 0 0 0.25 0"/>
<feBlend mode="normal" in2="BackgroundImageFix" result="effect1_dropShadow_68_47"/>
<feBlend mode="normal" in="SourceGraphic" in2="effect1_dropShadow_68_47" result="shape"/>
</filter>
</defs>
</svg>
