<svg width="64" height="46" viewBox="0 0 64 46" fill="none" xmlns="http://www.w3.org/2000/svg">
<path fill-rule="evenodd" clip-rule="evenodd" d="M42.6102 0.720703L19.7574 2.36634L0.16925 13.8858H5.06628V29.0501C4.11621 29.8408 3.43394 31.9493 3.43394 34.4563C3.43394 37.6383 4.53067 40.216 5.88245 40.216C7.23424 40.216 8.33097 38.4611 8.33097 35.2791C8.33097 32.7721 7.6487 30.1622 6.69862 29.153V13.8858H24.6544L42.6102 0.720703ZM33.6323 8.9489L25.4706 15.5315H12.4118C12.2524 16.3286 12.2078 16.3028 12.2078 17.145C12.2078 17.9999 12.2971 18.8356 12.4628 19.6455C12.9156 19.6263 22.2059 18.8227 27.1348 22.9368C28.0912 20.0184 30.7438 16.2707 34.5058 12.8637C34.8502 12.5487 34.9139 12.5359 35.2646 12.2402C35.2646 10.5945 34.5122 9.90028 33.6323 8.9489ZM47.5072 10.5945C43.7452 10.5945 40.3211 12.0473 37.7131 14.4129C37.2158 13.963 36.6866 13.5644 36.1318 13.1916C35.9341 13.3651 35.7237 13.5323 35.5261 13.7123C32.8735 16.1164 30.7884 18.6877 29.4494 21.0148C31.4261 21.9212 32.8161 23.9075 32.8161 26.2281V45.153H42.6102V26.2281C42.6102 23.059 45.1798 20.4684 48.3234 20.4684C51.4669 20.4684 54.0366 23.059 54.0366 26.2281V45.153H63.8306V25.4053C63.8306 17.2607 57.2184 10.5945 49.1395 10.5945H47.5072ZM12.4628 20.4941C11.9145 22.0369 11.5957 23.6825 11.5957 25.4053V45.153H21.3897V26.2281C21.3897 24.801 21.9317 23.5154 22.7925 22.519C20.2802 21.349 16.6011 20.5905 12.4628 20.4941Z" fill="#537188"/>
</svg>
