<svg width="56" height="54" viewBox="0 0 56 54" fill="none" xmlns="http://www.w3.org/2000/svg">
<path fill-rule="evenodd" clip-rule="evenodd" d="M4.9097 0.468018H26.1187C27.4198 0.471816 28.6665 0.968022 29.5866 1.84829C30.5066 2.72855 31.0253 3.92135 31.0292 5.16622V5.947H12.2366C11.3777 5.94789 10.5274 6.11085 9.73443 6.42658C8.94145 6.7423 8.22137 7.20457 7.61538 7.78692L7.61035 7.79254C7.00164 8.3723 6.51847 9.06125 6.18848 9.81995C5.85849 10.5787 5.68816 11.3922 5.68729 12.2139V30.1573H4.91052C3.60925 30.1539 2.3623 29.6578 1.44216 28.7774C0.522019 27.8971 0.00353068 26.704 0 25.459V5.16622C0.00374913 3.92142 0.522196 2.72862 1.44211 1.84834C2.36202 0.968048 3.60865 0.471817 4.9097 0.468018Z" fill="white"/>
<path fill-rule="evenodd" clip-rule="evenodd" d="M12.2365 7.32739H34.2908C35.6439 7.33119 36.9403 7.84712 37.8971 8.76249C38.8538 9.67786 39.393 10.9183 39.397 12.2128V12.792H19.9991C18.9982 12.743 17.9984 12.9065 17.0713 13.2708C16.1443 13.6351 15.313 14.1912 14.637 14.8991C13.326 16.4843 12.6656 18.4732 12.78 20.4917V38.199H12.2399C10.8869 38.195 9.59056 37.679 8.63387 36.7637C7.67719 35.8484 7.13786 34.608 7.13367 33.3136V12.2136C7.13741 10.9195 7.6761 9.67936 8.63214 8.76391C9.58818 7.84846 10.8839 7.33204 12.2365 7.32739Z" fill="white"/>
<path fill-rule="evenodd" clip-rule="evenodd" d="M19.9958 14.175H49.3042C50.8348 14.1792 52.3013 14.7627 53.3836 15.7982C54.4658 16.8336 55.0757 18.2368 55.0802 19.7011V47.7401C55.0757 49.2044 54.4658 50.6076 53.3836 51.643C52.3013 52.6785 50.8348 53.2621 49.3042 53.2663H19.9958C18.4652 53.2621 16.9987 52.6785 15.9165 51.643C14.8342 50.6076 14.2243 49.2044 14.2198 47.7401V20.4931C14.2198 16.5404 16.1822 14.1733 19.9958 14.1733V14.175ZM28.4774 39.786C28.0894 39.3724 26.8937 36.1341 25.1103 35.2494C24.209 34.8022 21.653 36.8597 21.3637 38.0045C21.214 38.5988 21.8402 39.09 22.1371 39.4644C23.2534 40.7658 24.2006 42.1919 24.9581 43.7114C25.7031 45.005 25.8051 45.5514 27.6279 45.773C29.8394 45.7026 29.9899 45.8658 30.8887 44.4978C31.587 43.604 32.2254 42.6689 32.8001 41.6979C37.6956 33.5502 41.8302 28.9144 48.9163 22.3994L49.4104 20.6163C41.7001 25.3103 35.0103 31.3854 29.709 38.5076C29.3929 38.9484 29.1145 39.7316 28.4774 39.786Z" fill="white"/>
</svg>
