<svg width="166" height="56" viewBox="0 0 166 56" fill="none" xmlns="http://www.w3.org/2000/svg">
<g clip-path="url(#clip0_317_502)">
<path d="M159.668 55.1216H6.40971C3.03957 55.1216 0.279388 52.0436 0.279388 48.2855V7.26898C0.279388 3.51085 3.03957 0.432896 6.40971 0.432896H159.668C163.038 0.432896 165.798 3.51085 165.798 7.26898V48.2855C165.798 52.0436 163.038 55.1216 159.668 55.1216Z" fill="black"/>
<path d="M159.668 1.52838C162.506 1.52838 164.816 4.10387 164.816 7.26898V48.2855C164.816 51.4506 162.506 54.0261 159.668 54.0261H6.40971C3.57137 54.0261 1.26177 51.4506 1.26177 48.2855V7.26898C1.26177 4.10387 3.57137 1.52838 6.40971 1.52838H159.668ZM159.668 0.432896H6.40971C3.03957 0.432896 0.279388 3.51085 0.279388 7.26898V48.2855C0.279388 52.0436 3.03957 55.1216 6.40971 55.1216H159.668C163.038 55.1216 165.798 52.0436 165.798 48.2855V7.26898C165.798 3.51085 163.038 0.432896 159.668 0.432896Z" fill="#A6A6A6"/>
<path d="M58.4163 14.4383C58.4163 15.58 58.1098 16.4943 57.5059 17.1762C56.8117 17.9846 55.9074 18.3913 54.7994 18.3913C53.7404 18.3913 52.8361 17.9777 52.0944 17.1625C51.3511 16.3353 50.9802 15.3202 50.9802 14.1051C50.9802 12.89 51.3511 11.8748 52.0944 11.0545C52.8361 10.2324 53.7404 9.81885 54.7994 9.81885C55.3266 9.81885 55.8293 9.94019 56.309 10.1658C56.7871 10.3931 57.1764 10.7007 57.4584 11.0801L56.8178 11.8013C56.3258 11.1536 55.6561 10.834 54.7994 10.834C54.027 10.834 53.3572 11.1348 52.7886 11.7415C52.2262 12.3499 51.9442 13.1378 51.9442 14.1051C51.9442 15.0724 52.2262 15.8671 52.7886 16.4755C53.3572 17.0754 54.027 17.383 54.7994 17.383C55.6193 17.383 56.309 17.0754 56.853 16.4686C57.2117 16.067 57.4155 15.5133 57.4691 14.8058H54.7994V13.818H58.3611C58.404 14.0316 58.4163 14.2384 58.4163 14.4383Z" fill="#FFF9F9" stroke="#FFF9F9" stroke-width="0.199309" stroke-miterlimit="10"/>
<path d="M64.0669 11.0134H60.7213V13.6112H63.7374V14.599H60.7213V17.1967H64.0669V18.2033H59.7741V10.0068H64.0669V11.0134Z" fill="#FFF9F9" stroke="#FFF9F9" stroke-width="0.199309" stroke-miterlimit="10"/>
<path d="M68.0547 18.2033H67.1075V11.0134H65.0554V10.0068H70.1083V11.0134H68.0547V18.2033Z" fill="#FFF9F9" stroke="#FFF9F9" stroke-width="0.199309" stroke-miterlimit="10"/>
<path d="M73.7651 18.2033V10.0068H74.7107V18.2033H73.7651Z" fill="#FFF9F9" stroke="#FFF9F9" stroke-width="0.199309" stroke-miterlimit="10"/>
<path d="M78.9023 18.2033H77.9628V11.0134H75.903V10.0068H80.9621V11.0134H78.9023V18.2033Z" fill="#FFF9F9" stroke="#FFF9F9" stroke-width="0.199309" stroke-miterlimit="10"/>
<path d="M90.5284 17.1488C89.8035 17.9777 88.9054 18.3913 87.8341 18.3913C86.7567 18.3913 85.8586 17.9777 85.1337 17.1488C84.4104 16.3217 84.0502 15.3065 84.0502 14.1051C84.0502 12.9036 84.4104 11.8885 85.1337 11.0613C85.8586 10.2324 86.7567 9.81885 87.8341 9.81885C88.8993 9.81885 89.7974 10.2324 90.5223 11.0681C91.2518 11.9021 91.612 12.9105 91.612 14.1051C91.612 15.3065 91.2518 16.3217 90.5284 17.1488ZM85.8341 16.4618C86.3797 17.0754 87.0433 17.383 87.8341 17.383C88.6188 17.383 89.2886 17.0754 89.828 16.4618C90.3721 15.8483 90.648 15.0604 90.648 14.1051C90.648 13.1497 90.3721 12.3619 89.828 11.7483C89.2886 11.1348 88.6188 10.8272 87.8341 10.8272C87.0433 10.8272 86.3797 11.1348 85.8341 11.7483C85.2901 12.3619 85.0142 13.1497 85.0142 14.1051C85.0142 15.0604 85.2901 15.8483 85.8341 16.4618Z" fill="#FFF9F9" stroke="#FFF9F9" stroke-width="0.199309" stroke-miterlimit="10"/>
<path d="M92.9407 18.2033V10.0068H94.0901L97.6641 16.3815H97.7055L97.6641 14.8058V10.0068H98.6097V18.2033H97.6227L93.8802 11.5142H93.8388L93.8802 13.0967V18.2033H92.9407Z" fill="#FFF9F9" stroke="#FFF9F9" stroke-width="0.199309" stroke-miterlimit="10"/>
<path d="M83.8173 30.1735C80.9375 30.1735 78.585 32.6174 78.585 35.9893C78.585 39.3338 80.9375 41.8034 83.8173 41.8034C86.7031 41.8034 89.0556 39.3338 89.0556 35.9893C89.0556 32.6174 86.7031 30.1735 83.8173 30.1735ZM83.8173 39.5133C82.2372 39.5133 80.8778 38.0589 80.8778 35.9893C80.8778 33.8923 82.2372 32.4636 83.8173 32.4636C85.3973 32.4636 86.7629 33.8923 86.7629 35.9893C86.7629 38.0589 85.3973 39.5133 83.8173 39.5133ZM72.4011 30.1735C69.5152 30.1735 67.1688 32.6174 67.1688 35.9893C67.1688 39.3338 69.5152 41.8034 72.4011 41.8034C75.2854 41.8034 77.6333 39.3338 77.6333 35.9893C77.6333 32.6174 75.2854 30.1735 72.4011 30.1735ZM72.4011 39.5133C70.8194 39.5133 69.4554 38.0589 69.4554 35.9893C69.4554 33.8923 70.8194 32.4636 72.4011 32.4636C73.9812 32.4636 75.3406 33.8923 75.3406 35.9893C75.3406 38.0589 73.9812 39.5133 72.4011 39.5133ZM58.8163 31.956V34.4272H64.1083C63.9535 35.8081 63.5397 36.8233 62.9052 37.5308C62.1328 38.3853 60.9297 39.3338 58.8163 39.3338C55.5595 39.3338 53.0093 36.4028 53.0093 32.7712C53.0093 29.1395 55.5595 26.2085 58.8163 26.2085C60.5772 26.2085 61.8584 26.9759 62.804 27.9705L64.3657 26.229C63.0431 24.8208 61.2837 23.739 58.8163 23.739C54.3503 23.739 50.597 27.7911 50.597 32.7712C50.597 37.7513 54.3503 41.8034 58.8163 41.8034C61.2301 41.8034 63.0431 40.9215 64.4684 39.2672C65.929 37.6385 66.3842 35.3484 66.3842 33.4992C66.3842 32.925 66.3412 32.3969 66.2646 31.956H58.8163ZM114.366 33.8718C113.936 32.5712 112.607 30.1735 109.9 30.1735C107.218 30.1735 104.985 32.5302 104.985 35.9893C104.985 39.2467 107.195 41.8034 110.158 41.8034C112.553 41.8034 113.936 40.1747 114.504 39.2261L112.726 37.9051C112.133 38.8724 111.326 39.5133 110.158 39.5133C108.998 39.5133 108.165 38.9202 107.632 37.7513L114.607 34.5332L114.366 33.8718ZM107.255 35.8081C107.195 33.5659 108.817 32.4174 109.978 32.4174C110.889 32.4174 111.661 32.925 111.919 33.6513L107.255 35.8081ZM101.586 41.4496H103.879V24.3594H101.586V41.4496ZM97.8312 31.4689H97.7545C97.2396 30.7887 96.2572 30.1735 95.0128 30.1735C92.4012 30.1735 90.0135 32.7302 90.0135 36.0081C90.0135 39.2672 92.4012 41.8034 95.0128 41.8034C96.2572 41.8034 97.2396 41.183 97.7545 40.4823H97.8312V41.3163C97.8312 43.5397 96.766 44.7343 95.048 44.7343C93.6472 44.7343 92.7783 43.6064 92.4196 42.6579L90.4257 43.5859C91.0005 45.1274 92.5223 47.0244 95.048 47.0244C97.7361 47.0244 100.004 45.2607 100.004 40.9694V30.5272H97.8312V31.4689ZM95.2089 39.5133C93.6288 39.5133 92.3062 38.0384 92.3062 36.0081C92.3062 33.9589 93.6288 32.4636 95.2089 32.4636C96.766 32.4636 97.9936 33.9589 97.9936 36.0081C97.9936 38.0384 96.766 39.5133 95.2089 39.5133ZM125.1 24.3594H119.617V41.4496H121.903V34.9741H125.1C127.64 34.9741 130.13 32.925 130.13 29.6659C130.13 26.4085 127.634 24.3594 125.1 24.3594ZM125.16 32.5969H121.903V26.7366H125.16C126.867 26.7366 127.842 28.3175 127.842 29.6659C127.842 30.9887 126.867 32.5969 125.16 32.5969ZM139.295 30.141C137.643 30.141 135.925 30.9545 135.218 32.7575L137.248 33.706C137.684 32.7575 138.487 32.4499 139.337 32.4499C140.523 32.4499 141.726 33.2446 141.744 34.6477V34.8271C141.33 34.5605 140.445 34.1657 139.355 34.1657C137.169 34.1657 134.943 35.5073 134.943 38.011C134.943 40.3011 136.733 41.776 138.745 41.776C140.284 41.776 141.133 41.0018 141.666 40.1012H141.744V41.4222H143.953V34.8664C143.953 31.8363 141.924 30.141 139.295 30.141ZM139.019 39.5064C138.271 39.5064 137.229 39.0928 137.229 38.0589C137.229 36.7361 138.529 36.2285 139.654 36.2285C140.661 36.2285 141.133 36.4763 141.744 36.8028C141.565 38.3853 140.343 39.5064 139.019 39.5064ZM151.999 30.5153L149.37 37.9239H149.292L146.575 30.5153H144.109L148.192 40.8685L145.862 46.6296H148.252L154.543 30.5153H151.999ZM131.387 41.4496H133.68V24.3594H131.387V41.4496Z" fill="#FFF9F9"/>
<path d="M13.0733 10.74C12.7132 11.1604 12.5048 11.815 12.5048 12.6626V42.8986C12.5048 43.7463 12.7132 44.4009 13.0733 44.8213L13.1622 44.9136L28.3562 27.9772V27.5773L13.1622 10.6409L13.0733 10.74Z" fill="url(#paint0_linear_317_502)"/>
<path d="M33.4153 33.6255L28.3563 27.9772V27.5773L33.4214 21.9289L33.5349 22.0024L39.5334 25.8084C41.2453 26.8885 41.2453 28.6659 39.5334 29.7528L33.5349 33.552L33.4153 33.6255Z" fill="url(#paint1_linear_317_502)"/>
<path d="M33.5348 33.5521L28.3563 27.7773L13.0734 44.8214C13.642 45.4879 14.5692 45.5683 15.6236 44.9017L33.5348 33.5521Z" fill="url(#paint2_linear_317_502)"/>
<path d="M33.5348 22.0026L15.6236 10.6529C14.5692 9.99327 13.642 10.0736 13.0734 10.7401L28.3563 27.7773L33.5348 22.0026Z" fill="url(#paint3_linear_317_502)"/>
</g>
<defs>
<linearGradient id="paint0_linear_317_502" x1="27.0072" y1="43.2135" x2="4.19757" y2="22.7588" gradientUnits="userSpaceOnUse">
<stop stop-color="#00A0FF"/>
<stop offset="0.0066" stop-color="#00A1FF"/>
<stop offset="0.2601" stop-color="#00BEFF"/>
<stop offset="0.5122" stop-color="#00D2FF"/>
<stop offset="0.7604" stop-color="#00DFFF"/>
<stop offset="1" stop-color="#00E3FF"/>
</linearGradient>
<linearGradient id="paint1_linear_317_502" x1="41.7625" y1="27.7753" x2="12.0956" y2="27.7753" gradientUnits="userSpaceOnUse">
<stop stop-color="#FFE000"/>
<stop offset="0.4087" stop-color="#FFBD00"/>
<stop offset="0.7754" stop-color="#FFA500"/>
<stop offset="1" stop-color="#FF9C00"/>
</linearGradient>
<linearGradient id="paint2_linear_317_502" x1="30.7189" y1="24.6381" x2="-0.212838" y2="-3.10021" gradientUnits="userSpaceOnUse">
<stop stop-color="#FF3A44"/>
<stop offset="1" stop-color="#C31162"/>
</linearGradient>
<linearGradient id="paint3_linear_317_502" x1="9.22634" y1="54.8808" x2="23.0387" y2="42.4945" gradientUnits="userSpaceOnUse">
<stop stop-color="#32A071"/>
<stop offset="0.0685" stop-color="#2DA771"/>
<stop offset="0.4762" stop-color="#15CF74"/>
<stop offset="0.8009" stop-color="#06E775"/>
<stop offset="1" stop-color="#00F076"/>
</linearGradient>
<clipPath id="clip0_317_502">
<rect width="166" height="55.2266" fill="white"/>
</clipPath>
</defs>
</svg>
