<svg width="22" height="22" viewBox="0 0 22 22" fill="none" xmlns="http://www.w3.org/2000/svg">
<path d="M11.0001 1C5.47733 1 1.00006 5.47727 1.00006 11C1.00006 16.5227 5.47733 21 11.0001 21C16.5228 21 21.0001 16.5227 21.0001 11C21.0001 5.47727 16.5228 1 11.0001 1ZM11.0001 19.3333C6.3978 19.3333 2.66674 15.6023 2.66674 11C2.66674 6.39773 6.3978 2.66668 11.0001 2.66668C15.6023 2.66668 19.3334 6.39773 19.3334 11C19.3334 15.6023 15.6023 19.3333 11.0001 19.3333Z" fill="#537188" stroke="#537188" stroke-width="1.5625"/>
<path d="M11 4.3335C10.5398 4.3335 10.1667 4.70658 10.1667 5.16682V10.1668H7.66669C7.20646 10.1668 6.83337 10.5399 6.83337 11.0001C6.83337 11.4604 7.20646 11.8335 7.66669 11.8335H11C11.4602 11.8335 11.8333 11.4604 11.8333 11.0001V5.16686C11.8333 4.70662 11.4602 4.3335 11 4.3335Z" fill="#537188" stroke="#537188" stroke-width="1.5625"/>
</svg>
