<svg width="11" height="22" viewBox="0 0 11 22" fill="none" xmlns="http://www.w3.org/2000/svg">
<path d="M6.42443 5.8671C6.42443 6.07732 6.42443 6.76248 6.42443 7.73589H9.77119L9.40832 10.7193H6.42443C6.42443 15.3203 6.42443 21.4858 6.42443 21.4858H2.46379C2.46379 21.4858 2.46379 15.4019 2.46379 10.7193H0.400024V7.73589H2.46379C2.46379 6.55275 2.46379 5.71144 2.46379 5.4772C2.46379 4.36113 2.3797 3.83158 2.85393 2.96673C3.3284 2.10191 4.66672 0.958807 6.98146 0.986327C9.29676 1.01485 10.2727 1.23758 10.2727 1.23758L9.77119 4.41717C9.77119 4.41717 8.29274 4.02679 7.56705 4.16592C6.84233 4.30509 6.42443 4.75151 6.42443 5.8671Z" fill="#537188"/>
</svg>
