<svg width="15" height="15" viewBox="0 0 15 15" fill="none" xmlns="http://www.w3.org/2000/svg">
<path fill-rule="evenodd" clip-rule="evenodd" d="M7.50174 0.48584C5.58777 0.48584 5.34777 0.493898 4.59609 0.527964C3.84597 0.561947 3.33367 0.680291 2.88539 0.853345C2.42196 1.03221 2.02894 1.27156 1.63712 1.66071C1.24533 2.04989 1.00436 2.44026 0.824281 2.90058C0.650053 3.34583 0.530908 3.85469 0.496695 4.59975C0.462397 5.34638 0.454285 5.58476 0.454285 7.48589C0.454285 9.38694 0.462397 9.62531 0.496695 10.372C0.530908 11.117 0.650053 11.6259 0.824281 12.0711C1.00436 12.5315 1.24533 12.9218 1.63712 13.311C2.02894 13.7001 2.42196 13.9395 2.88539 14.1184C3.33367 14.2914 3.84597 14.4097 4.59609 14.4438C5.34777 14.4778 5.58777 14.4858 7.50174 14.4858C9.41573 14.4858 9.65572 14.4778 10.4074 14.4438C11.1575 14.4097 11.6698 14.2914 12.1181 14.1184C12.5815 13.9395 12.9745 13.7001 13.3664 13.311C13.7582 12.9218 13.9991 12.5315 14.1793 12.0711C14.3535 11.6259 14.4726 11.117 14.5068 10.372C14.5411 9.62531 14.5492 9.38694 14.5492 7.48589C14.5492 5.58476 14.5411 5.34638 14.5068 4.59975C14.4726 3.85469 14.3535 3.34583 14.1793 2.90058C13.9991 2.44026 13.7582 2.04989 13.3664 1.66071C12.9745 1.27156 12.5815 1.03221 12.1181 0.853345C11.6698 0.680291 11.1575 0.561947 10.4074 0.527964C9.65572 0.493898 9.41573 0.48584 7.50174 0.48584ZM5.1526 7.48589C5.1526 8.77454 6.20434 9.81921 7.50174 9.81921C8.79918 9.81921 9.85093 8.77454 9.85093 7.48589C9.85093 6.19718 8.79918 5.15251 7.50174 5.15251C6.20434 5.15251 5.1526 6.19718 5.1526 7.48589ZM3.88278 7.48589C3.88278 5.5006 5.50304 3.89125 7.50174 3.89125C9.50045 3.89125 11.1207 5.5006 11.1207 7.48589C11.1207 9.47108 9.50045 11.0804 7.50174 11.0804C5.50304 11.0804 3.88278 9.47108 3.88278 7.48589ZM11.2637 4.58923C11.7308 4.58923 12.1094 4.21316 12.1094 3.74923C12.1094 3.28531 11.7308 2.90922 11.2637 2.90922C10.7966 2.90922 10.418 3.28531 10.418 3.74923C10.418 4.21316 10.7966 4.58923 11.2637 4.58923Z" fill="#537188"/>
</svg>
