<svg width="16" height="13" viewBox="0 0 16 13" fill="none" xmlns="http://www.w3.org/2000/svg">
<path fill-rule="evenodd" clip-rule="evenodd" d="M6.42319 8.52067V3.90589C7.89086 4.67677 9.02757 5.42145 10.372 6.22432C9.26313 6.91073 7.89086 7.6809 6.42319 8.52067ZM14.6026 1.61075C14.3494 1.23843 13.9179 0.94861 13.4585 0.85266C12.1082 0.566448 3.6845 0.565633 2.33497 0.85266C1.96659 0.929746 1.63855 1.11607 1.35675 1.40557C0.169403 2.63569 0.541463 9.23247 0.82766 10.3011C0.948009 10.7636 1.10359 11.0972 1.29953 11.3161C1.55197 11.6056 1.8976 11.8049 2.29461 11.8943C3.40637 12.151 9.13398 12.2945 13.435 11.9329C13.8313 11.8558 14.1821 11.65 14.4587 11.3482C15.5565 10.123 15.4817 3.15579 14.6026 1.61075Z" fill="#537188"/>
</svg>
